<?xml version="1.0" encoding="UTF-8"?>
<svg version="1.1" xmlns="http://www.w3.org/2000/svg" width="440" height="568">
<path d="M0 0 C1.11822553 -0.00750224 2.23645105 -0.01500447 3.3885622 -0.02273405 C7.13770786 -0.04407531 10.88654028 -0.04395049 14.63574219 -0.04379272 C17.32324993 -0.05440588 20.01073199 -0.06615901 22.69822693 -0.07919312 C30.00230085 -0.11128132 37.30630407 -0.1211248 44.6104393 -0.12683535 C49.17590012 -0.1305905 53.74134216 -0.13940221 58.30679321 -0.14933395 C70.96008368 -0.17627319 83.613356 -0.19878203 96.26667786 -0.20121193 C97.4807186 -0.20144529 97.4807186 -0.20144529 98.71928543 -0.20168336 C100.35990683 -0.20197441 102.00052824 -0.20225978 103.64114964 -0.20253952 C104.45550288 -0.20268237 105.26985611 -0.20282523 106.10888672 -0.20297241 C106.92424043 -0.20311208 107.73959413 -0.20325175 108.57965553 -0.20339565 C121.77784224 -0.20652785 134.97570007 -0.24308548 148.1737783 -0.29460867 C161.74098405 -0.34714814 175.30802774 -0.37332393 188.8753376 -0.37276304 C196.48601888 -0.37301508 204.09632254 -0.38412854 211.70690918 -0.42393875 C218.19055062 -0.45768228 224.67366753 -0.46692829 231.15736967 -0.4451818 C234.46076411 -0.43479902 237.76292801 -0.43919446 241.06625175 -0.46694565 C259.77436266 -0.61430448 271.69830387 0.95104042 285.64281273 14.08967209 C286.1330121 14.58516178 286.62321148 15.08065147 287.12826538 15.59115601 C287.72150478 16.18623711 288.31474419 16.78131821 288.92596054 17.39443207 C289.58815723 18.05886574 290.25035393 18.72329941 290.93261719 19.40786743 C292.56860015 21.02099692 294.20587805 22.63281373 295.84414673 24.24362183 C301.26568839 29.5887602 306.65565623 34.96499755 312.03978944 40.34778261 C313.652589 41.95986473 315.2661012 43.57123014 316.87985802 45.18235397 C322.51689158 50.81019979 328.15140232 56.44055672 333.78344727 62.07339478 C339.02723194 67.31778457 344.27662024 72.55652003 349.52854902 77.79275286 C354.05462323 82.30578274 358.57686567 86.82262768 363.09610194 91.34250486 C365.78867496 94.03533297 368.48278267 96.72658079 371.18076515 99.41399002 C373.70595715 101.92954886 376.22636776 104.44979921 378.74308968 106.97383118 C380.11131832 108.34361288 381.48451321 109.70842827 382.8578186 111.07312012 C383.66361862 111.88311462 384.46941864 112.69310913 385.29963684 113.52764893 C386.0054379 114.23290522 386.71123896 114.93816151 387.43842793 115.6647892 C388.93261719 117.40786743 388.93261719 117.40786743 388.93261719 119.40786743 C389.92261719 119.73786743 390.91261719 120.06786743 391.93261719 120.40786743 C399.64200889 130.2637255 404.08336202 141.08583506 404.03796387 153.60621643 C404.0358918 154.83830873 404.03381973 156.07040102 404.03168488 157.33982944 C404.02416671 158.70227178 404.01653036 160.06471346 404.00878906 161.42715454 C404.00419332 162.88741658 404.00001234 164.34767998 403.99620819 165.8079443 C403.98423054 169.82640848 403.96546556 173.84481503 403.94511032 177.86324453 C403.9282963 181.28795365 403.91459005 184.71267282 403.90071905 188.13739491 C403.85762045 198.67750509 403.80349571 209.21754735 403.74738693 219.75759506 C403.71259733 226.30077236 403.67957352 232.84395793 403.6468811 239.387146 C403.64124275 240.51440393 403.6356044 241.64166186 403.62979519 242.80307913 C403.61825133 245.11153171 403.60671146 247.41998432 403.5951755 249.72843695 C403.56557983 255.64187542 403.53575906 261.55531275 403.50592041 267.46875 C403.49991943 268.65905492 403.49391845 269.84935985 403.48773563 271.07573462 C403.45714684 277.13669418 403.42637419 283.19765274 403.39528656 289.25860977 C403.30772889 306.3369912 403.22287703 323.4153831 403.14355469 340.49380493 C403.13795202 341.69971181 403.13234935 342.90561868 403.1265769 344.14806819 C402.98258542 375.41621069 402.89878025 406.68310472 402.96641445 437.95153832 C402.97163213 440.42438906 402.97629227 442.89724018 402.98075104 445.37009239 C403.00629669 459.48852603 403.0344198 473.60685719 403.11352789 487.72510624 C403.14597017 493.6136201 403.16432829 499.50212315 403.17780685 505.39071274 C403.18604347 507.73414591 403.19965194 510.07756816 403.21937943 512.42093277 C403.48073753 543.61740901 403.48073753 543.61740901 393.93261719 553.40786743 C383.55164657 563.01026526 370.43325235 562.7075375 357.05290222 562.66183472 C355.57003337 562.66414313 354.08716566 562.6673222 352.60430032 562.67128921 C348.555627 562.6795946 344.50704865 562.67553129 340.4583751 562.66931677 C336.0811406 562.66477533 331.70392198 562.67178471 327.32669067 562.67727661 C318.75888904 562.68615668 310.19112252 562.68425406 301.62331953 562.67845133 C294.65151361 562.67392615 287.6797175 562.67332565 280.70791054 562.67549896 C279.71384742 562.67580543 278.71978431 562.67611189 277.69559807 562.67642765 C275.67574403 562.67706714 273.65588999 562.67771557 271.63603596 562.67837283 C252.70409164 562.68407291 233.7721667 562.67752497 214.84022556 562.6667721 C198.63476628 562.65785206 182.4293357 562.65937647 166.22387695 562.66860962 C147.3746089 562.67934417 128.52535788 562.68350769 109.6760872 562.67738509 C107.66049056 562.67674805 105.64489391 562.67611931 103.62929726 562.67549896 C102.14204234 562.67503614 102.14204234 562.67503614 100.62474188 562.67456396 C93.67588663 562.67284541 86.72704227 562.67573421 79.77818871 562.68045807 C71.28801468 562.68610307 62.79787756 562.68447579 54.30770769 562.67389658 C49.98499136 562.66868576 45.66233629 562.66650323 41.33962059 562.67319489 C11.59222409 562.71502381 11.59222409 562.71502381 -1.90873718 561.58700562 C-3.20437897 561.48493785 -3.20437897 561.48493785 -4.52619535 561.38080812 C-13.59634631 560.47220623 -18.88075333 556.30156449 -24.56738281 549.40786743 C-29.72119845 542.45620913 -29.45824343 534.19653254 -29.68563843 525.9115448 C-29.72614956 524.66161786 -29.7666607 523.41169093 -29.80839944 522.12388742 C-29.91605561 518.68574172 -30.01467313 515.24760608 -30.10739282 511.80904166 C-30.16705861 509.61624111 -30.22971339 507.42354291 -30.29305148 505.23084557 C-31.24693888 471.92173805 -31.41462138 438.61487887 -31.46800361 405.29413387 C-31.48221748 396.64124767 -31.50723472 387.98839948 -31.53237014 379.33553929 C-31.57729054 363.77201555 -31.61406254 348.20848435 -31.64550781 332.64492798 C-31.6753894 317.86268612 -31.70977668 303.08046574 -31.75 288.29824829 C-31.75245847 287.39280153 -31.75491693 286.48735477 -31.7574499 285.55447023 C-31.76736917 281.90450172 -31.77731377 278.25453328 -31.78728916 274.60456493 C-31.88117592 240.2320052 -31.95735773 205.85944633 -32.01504898 171.48680687 C-32.02061861 168.18679168 -32.02622447 164.88677655 -32.03186035 161.58676147 C-32.03323442 160.77983609 -32.03460848 159.9729107 -32.03602418 159.14153303 C-32.05730559 146.77275363 -32.08659707 134.40401033 -32.12069274 122.0352601 C-32.15266877 110.41935903 -32.17806345 98.80346829 -32.19594467 87.18753558 C-32.20557019 81.06950007 -32.21836194 74.95151575 -32.23985672 68.83350945 C-32.25922499 63.29776801 -32.26936753 57.76209117 -32.27196741 52.22631717 C-32.27452718 50.24525658 -32.28048428 48.26419675 -32.29024267 46.28315854 C-32.4239452 18.12766196 -32.4239452 18.12766196 -24.01660156 9.23989868 C-16.22199833 2.04790343 -10.49006824 -0.03986575 0 0 Z " fill="#EEECE4" transform="translate(34.0673828125,-0.407867431640625)"/>
<path d="M0 0 C1.08248333 -0.00981429 2.16496666 -0.01962858 3.28025252 -0.02974027 C4.46885781 -0.02013527 5.65746311 -0.01053026 6.88208675 -0.00063419 C8.14520544 -0.00616859 9.40832412 -0.01170299 10.70971912 -0.01740509 C14.21813008 -0.03218934 17.72609358 -0.02196135 21.23449028 -0.00766838 C25.0170848 0.00342074 28.79961549 -0.00849427 32.58220577 -0.01751041 C39.99293489 -0.0314586 47.40349385 -0.02387531 54.81421489 -0.00883483 C63.43926832 0.00800553 72.06427914 0.00481755 80.68934392 0.00107109 C96.07507272 -0.00481029 111.46071972 0.00937544 126.84642696 0.03401852 C141.78591127 0.05794429 156.72528631 0.06502151 171.66478634 0.05452633 C187.92309256 0.04312517 204.18134822 0.04117679 220.43965381 0.05562443 C222.17220366 0.05715031 223.9047535 0.05867067 225.63730335 0.06018543 C226.48981134 0.06094325 227.34231932 0.06170106 228.22066088 0.06248184 C234.23709882 0.06723055 240.25351422 0.06536911 246.26995182 0.06112003 C253.59815536 0.05620085 260.92625545 0.0621443 268.25443525 0.08201433 C271.99555171 0.09190725 275.73651043 0.09697003 279.47763538 0.08912182 C283.52715373 0.08080024 287.57624925 0.09560411 291.6257391 0.1128912 C292.81657512 0.10688115 294.00741114 0.10087111 295.2343331 0.09467894 C296.31420868 0.10311888 297.39408426 0.11155882 298.50668335 0.12025452 C299.44204455 0.12128365 300.37740576 0.12231278 301.34111124 0.12337309 C303.6904211 0.50057125 303.6904211 0.50057125 305.48950237 1.7938723 C307.54176014 4.71046115 307.1203859 8.06832498 307.0654211 11.50057125 C307.07702267 12.22502438 307.08862423 12.9494775 307.10057735 13.69588375 C307.0714453 18.95907449 307.0714453 18.95907449 305.48950237 21.20727021 C303.06156957 22.95263218 301.48589804 22.87761011 298.50668335 22.88088799 C297.42680777 22.88932793 296.34693218 22.89776787 295.2343331 22.90646356 C293.44807907 22.8974485 293.44807907 22.8974485 291.6257391 22.8882513 C290.36418041 22.89363684 289.10262172 22.89902238 287.80283397 22.90457112 C284.2941746 22.91907782 280.78574907 22.91476487 277.2770766 22.9074043 C273.49580871 22.90268776 269.71459252 22.91516902 265.93334103 22.92542171 C258.52284383 22.94264495 251.11243129 22.94344244 243.70191927 22.93820881 C237.68037186 22.93417239 231.65884955 22.93560438 225.63730335 22.94095707 C224.35326546 22.9420797 224.35326546 22.9420797 223.04328741 22.94322501 C221.30444193 22.94475644 219.56559645 22.94629479 217.82675099 22.94783998 C201.50875228 22.9615778 185.19080148 22.95611837 168.87280386 22.94465477 C153.93473982 22.93472121 138.99679962 22.9476629 124.05875469 22.97158896 C108.73113928 22.99595458 93.40358162 23.00559408 78.07594723 22.99893624 C69.46632343 22.99543833 60.8567949 22.99771358 52.24718571 23.01518726 C44.91787577 23.02987759 37.58872818 23.03058641 30.25942153 23.01311635 C26.51813613 23.00457762 22.77714114 23.00252622 19.03587055 23.01776791 C14.98437158 23.03406943 10.93357934 23.01952845 6.88208675 23.0017767 C5.69348146 23.0113817 4.50487616 23.02098671 3.28025252 23.03088278 C2.19776919 23.02106849 1.11528586 23.01125419 0 23.0011425 C-0.93552356 23.00103517 -1.87104711 23.00092783 -2.83491987 23.00081724 C-6.09177854 22.34245159 -7.28575733 21.08869789 -9.3095789 18.50057125 C-9.8408289 15.18807125 -9.8408289 15.18807125 -9.8095789 11.50057125 C-9.8198914 10.28369625 -9.8302039 9.06682125 -9.8408289 7.81307125 C-8.89502578 1.91571066 -5.75447943 0.00066024 0 0 Z " fill="#AAA8A2" transform="translate(71.30957889556885,367.4994287490845)"/>
<path d="M0 0 C1.07838324 -0.00981429 2.15676647 -0.01962858 3.26782799 -0.02974027 C5.04387633 -0.01533276 5.04387633 -0.01533276 6.85580444 -0.00063419 C8.11413401 -0.00616859 9.37246357 -0.01170299 10.66892433 -0.01740509 C14.16400369 -0.03218915 17.65863388 -0.02196144 21.15369892 -0.00766838 C24.92199759 0.00342096 28.69023219 -0.0084944 32.45852661 -0.01751041 C39.84151748 -0.03145886 47.22433755 -0.02387493 54.60732031 -0.00883483 C63.20113759 0.00800694 71.7949121 0.00481733 80.38874078 0.00107109 C95.72008172 -0.00481043 111.05134059 0.0093755 126.38265991 0.03401852 C141.26680579 0.05794015 156.15084201 0.06502315 171.03500366 0.05452633 C187.23435589 0.04312249 203.43365736 0.04118044 219.63300896 0.05562443 C221.3596789 0.0571503 223.08634885 0.05867066 224.8130188 0.06018543 C226.08742354 0.06132215 226.08742354 0.06132215 227.38757384 0.06248184 C233.38099967 0.0672288 239.37440288 0.06537031 245.36782837 0.06112003 C252.66965303 0.05619834 259.9713739 0.06215545 267.27317476 0.08201433 C271.0002384 0.09190043 274.72714387 0.09697735 278.454216 0.08912182 C282.49024763 0.08078901 286.52585601 0.09561747 290.56185913 0.1128912 C291.74589136 0.10688115 292.92992359 0.10087111 294.14983559 0.09467894 C295.76741044 0.10733885 295.76741044 0.10733885 297.41766357 0.12025452 C298.3496073 0.12128365 299.28155102 0.12231278 300.24173546 0.12337309 C303.21971269 0.57868062 304.58859253 1.37510913 306.70883179 3.50057125 C307.11621607 6.32829746 307.26899223 8.68305731 307.20883179 11.50057125 C307.22430054 12.22502438 307.23976929 12.9494775 307.25570679 13.69588375 C307.21662454 18.99152763 307.21662454 18.99152763 305.00632668 21.20727021 C302.25385864 22.75668379 300.56586522 22.87741148 297.41766357 22.88088799 C296.33928034 22.88932793 295.2608971 22.89776787 294.14983559 22.90646356 C292.37378724 22.8974485 292.37378724 22.8974485 290.56185913 22.8882513 C289.30352957 22.89363684 288.0452 22.89902238 286.74873924 22.90457112 C283.25374035 22.91905898 279.7589766 22.91477072 276.26396465 22.9074043 C272.49566606 22.90268319 268.72741912 22.91517303 264.95913696 22.92542171 C257.57618235 22.94263537 250.19331274 22.94344449 242.81034327 22.93820881 C236.81122632 22.93417095 230.81213454 22.93560608 224.8130188 22.94095707 C223.53334718 22.9420797 223.53334718 22.9420797 222.22782362 22.94322501 C220.49485667 22.94475645 218.76188973 22.9462948 217.0289228 22.94783998 C200.77053123 22.96157409 184.51218776 22.95612075 168.25379729 22.94465477 C153.37076214 22.93471948 138.48785126 22.94766653 123.60483527 22.97158896 C108.33142876 22.99595441 93.05808019 23.00559425 77.78465462 22.99893624 C69.20634472 22.99543857 60.62813045 22.99771216 52.04983521 23.01518726 C44.74799765 23.02987728 37.44632306 23.03058671 30.14448881 23.01311635 C26.41737294 23.00457776 22.69054858 23.00252593 18.96344757 23.01776791 C14.92732793 23.03406964 10.89191769 23.01952837 6.85580444 23.0017767 C5.0797561 23.01618421 5.0797561 23.01618421 3.26782799 23.03088278 C2.18944475 23.02106849 1.11106152 23.01125419 0 23.0011425 C-0.93194372 23.00103517 -1.86388744 23.00092783 -2.82407188 23.00081724 C-6.07531467 22.34157214 -7.26982757 21.08377812 -9.29116821 18.50057125 C-9.82241821 15.18807125 -9.82241821 15.18807125 -9.79116821 11.50057125 C-9.80148071 10.28369625 -9.81179321 9.06682125 -9.82241821 7.81307125 C-8.87858649 1.92800287 -5.74645234 0.00066185 0 0 Z " fill="#A9A8A3" transform="translate(71.29116821289063,177.49942874908447)"/>
<path d="M0 0 C1.62279995 -0.01564648 1.62279995 -0.01564648 3.27838373 -0.03160906 C4.46630691 -0.02268617 5.65423009 -0.01376328 6.87815094 -0.00457001 C8.14056406 -0.01080997 9.40297717 -0.01704993 10.70364523 -0.02347898 C14.21011589 -0.04020622 17.71615214 -0.03191091 21.22262454 -0.01953411 C25.00320072 -0.01049966 28.78370116 -0.02444533 32.56426239 -0.0354538 C39.97130893 -0.05326086 47.37819355 -0.04938935 54.78524649 -0.03780323 C60.80391434 -0.02877776 66.82253674 -0.02754106 72.84120941 -0.0318985 C73.69709918 -0.03251143 74.55298896 -0.03312436 75.43481478 -0.03375587 C77.17341873 -0.03503474 78.91202267 -0.03633159 80.6506266 -0.03764623 C96.96197175 -0.04905844 113.27322706 -0.03592831 129.58455747 -0.01444477 C143.58713006 0.0034268 157.58957001 0.00032288 171.5921402 -0.01811981 C187.84423524 -0.03951524 204.09625148 -0.04795974 220.34835863 -0.03567076 C222.08064555 -0.03439653 223.81293248 -0.03313905 225.54521942 -0.0318985 C226.39758669 -0.0312814 227.24995397 -0.03066429 228.12815055 -0.03002849 C234.1411246 -0.0265716 240.15404876 -0.03241122 246.16701508 -0.04181671 C253.49264951 -0.05302335 260.81811245 -0.0500249 268.14372718 -0.02869374 C271.88298857 -0.01816518 275.62196381 -0.01409187 279.36122322 -0.02729034 C283.41049169 -0.04136712 287.45903469 -0.02458495 291.50827789 -0.00457001 C292.69620107 -0.01349289 293.88412425 -0.02241578 295.1080451 -0.03160906 C296.18991173 -0.02117807 297.27177836 -0.01074708 298.38642883 0 C299.78890106 0.00097411 299.78890106 0.00097411 301.21970606 0.00196791 C304.46971684 0.66076679 305.66772526 1.92652626 307.69321442 4.50336456 C308.18930817 7.59711456 308.18930817 7.59711456 308.13071442 11.00336456 C308.12878082 12.68945831 308.12878082 12.68945831 308.12680817 14.40961456 C307.6457839 17.84178772 307.08991558 19.05458621 304.69321442 21.50336456 C302.32992983 22.00476122 302.32992983 22.00476122 299.47544861 22.00672913 C298.38798954 22.01716012 297.30053046 22.0275911 296.18011808 22.03833818 C294.98081805 22.0294153 293.78151801 22.02049241 292.54587555 22.01129913 C291.27544419 22.0175391 290.00501283 22.02377906 288.69608355 22.03020811 C285.16262118 22.04695715 281.62958911 22.0386302 278.09612489 22.02626324 C274.28828355 22.01723765 270.48051781 22.03117003 266.67269135 22.04218292 C259.21036407 22.05999951 251.74819742 22.05611426 244.28586376 22.04453236 C238.2228271 22.03551061 232.15983557 22.03426857 226.09679413 22.03862762 C225.23492942 22.03924056 224.37306471 22.03985349 223.48508289 22.04048499 C221.73439768 22.04176385 219.98371247 22.04306071 218.23302728 22.04437536 C201.80440143 22.05579035 185.37586475 22.04265307 168.94725353 22.02117389 C154.84088201 22.00330207 140.73464215 22.00640592 126.62827301 22.02484894 C110.25973259 22.04623945 93.8912704 22.05469163 77.52271795 22.04239988 C75.77835688 22.04112564 74.0339958 22.03986816 72.2896347 22.03862762 C71.00213791 22.03770197 71.00213791 22.03770197 69.68863109 22.03675762 C63.63061528 22.03329925 57.57264895 22.03914352 51.51464081 22.04854584 C44.13515522 22.05974703 36.75583989 22.05676556 29.37637389 22.03542286 C25.6088903 22.02488693 21.8416909 22.02083345 18.07420921 22.03401947 C13.99607486 22.04807723 9.91866238 22.03132953 5.84055328 22.01129913 C4.64125325 22.02022202 3.44195321 22.02914491 2.20631075 22.03833818 C1.11885168 22.0279072 0.0313926 22.01747621 -1.08901978 22.00672913 C-2.03099858 22.00607972 -2.97297738 22.00543031 -3.943501 22.00476122 C-6.30678558 21.50336456 -6.30678558 21.50336456 -8.10579634 19.66526365 C-9.75237944 16.70125167 -9.74041655 14.37716315 -9.74428558 11.00336456 C-9.76362152 9.87930206 -9.78295746 8.75523956 -9.80287933 7.59711456 C-8.87619675 1.81811765 -5.58000376 0.0038757 0 0 Z " fill="#AAA7A2" transform="translate(71.3067855834961,407.4966354370117)"/>
<path d="M0 0 C1.08248333 -0.00981429 2.16496666 -0.01962858 3.28025252 -0.02974027 C4.46885781 -0.02013527 5.65746311 -0.01053026 6.88208675 -0.00063419 C8.14520544 -0.00616859 9.40832412 -0.01170299 10.70971912 -0.01740509 C14.21813008 -0.03218934 17.72609358 -0.02196135 21.23449028 -0.00766838 C25.0170848 0.00342074 28.79961549 -0.00849427 32.58220577 -0.01751041 C39.99293489 -0.0314586 47.40349385 -0.02387531 54.81421489 -0.00883483 C63.43926832 0.00800553 72.06427914 0.00481755 80.68934392 0.00107109 C96.07507272 -0.00481029 111.46071972 0.00937544 126.84642696 0.03401852 C141.78591127 0.05794429 156.72528631 0.06502151 171.66478634 0.05452633 C187.92309256 0.04312517 204.18134822 0.04117679 220.43965381 0.05562443 C222.17220366 0.05715031 223.9047535 0.05867067 225.63730335 0.06018543 C226.48981134 0.06094325 227.34231932 0.06170106 228.22066088 0.06248184 C234.23709882 0.06723055 240.25351422 0.06536911 246.26995182 0.06112003 C253.59815536 0.05620085 260.92625545 0.0621443 268.25443525 0.08201433 C271.99555171 0.09190725 275.73651043 0.09697003 279.47763538 0.08912182 C283.52715373 0.08080024 287.57624925 0.09560411 291.6257391 0.1128912 C292.81657512 0.10688115 294.00741114 0.10087111 295.2343331 0.09467894 C296.31420868 0.10311888 297.39408426 0.11155882 298.50668335 0.12025452 C299.44204455 0.12128365 300.37740576 0.12231278 301.34111124 0.12337309 C303.6904211 0.50057125 303.6904211 0.50057125 305.49169964 1.79167503 C307.5473259 4.72217393 307.07904786 8.11909702 307.0029211 11.56307125 C307.00775509 12.6623193 307.00775509 12.6623193 307.01268673 13.78377438 C306.95764049 19.23335186 306.95764049 19.23335186 304.6904211 21.50057125 C302.45133501 21.75357091 302.45133501 21.75357091 299.59570312 21.75784016 C297.96750109 21.7675135 297.96750109 21.7675135 296.30640608 21.77738225 C295.1041932 21.77428505 293.90198032 21.77118785 292.66333675 21.76799679 C290.75897135 21.77479346 290.75897135 21.77479346 288.81613392 21.78172743 C285.28052909 21.79400819 281.74501851 21.79369104 278.2093972 21.79133868 C274.40087179 21.79093179 270.59237713 21.80195734 266.78386593 21.81145382 C259.31810598 21.82809229 251.85237761 21.83356464 244.38660068 21.83467858 C238.32068855 21.83562765 232.25478688 21.8397309 226.18887806 21.84607983 C209.00591471 21.86369957 191.82297638 21.87291749 174.64000393 21.87141888 C173.24944896 21.87129901 173.24944896 21.87129901 171.83080196 21.87117672 C170.9026387 21.87109496 169.97447544 21.8710132 169.01818603 21.87092896 C153.96945656 21.87011572 138.92082711 21.88926086 123.87212659 21.91745345 C108.43494223 21.94614659 92.9978067 21.95999574 77.56059498 21.9582659 C68.88782464 21.95760079 60.21515915 21.96314603 51.54241276 21.984622 C44.15925984 22.00278688 36.7762593 22.00721996 29.39309377 21.99360316 C25.62358052 21.98704974 21.85435999 21.98704097 18.08487415 22.00430965 C14.0045216 22.02281082 9.92485382 22.01054817 5.8444891 21.99504757 C4.64450694 22.0053347 3.44452479 22.01562182 2.20817953 22.02622068 C1.12010376 22.01702309 0.03202799 22.0078255 -1.08901978 21.99834919 C-2.50280109 21.99900129 -2.50280109 21.99900129 -3.94514364 21.99966657 C-6.3095789 21.50057125 -6.3095789 21.50057125 -8.10876423 19.6628195 C-9.75496232 16.69859109 -9.74320983 14.37439708 -9.7470789 11.00057125 C-9.76641483 9.87650875 -9.78575077 8.75244625 -9.80567265 7.59432125 C-8.87863941 1.81313761 -5.58171568 0.00064041 0 0 Z " fill="#A7A5A0" transform="translate(71.30957889556885,288.4994287490845)"/>
<path d="M0 0 C0.84173264 -0.00010734 1.68346527 -0.00021467 2.55070496 -0.00032526 C3.52321198 -0.01013955 4.49571899 -0.01995384 5.49769592 -0.03006554 C6.56859467 -0.02046053 7.63949341 -0.01085552 8.74284363 -0.00095946 C9.87851776 -0.00649385 11.01419189 -0.01202825 12.1842804 -0.01773036 C16.01001012 -0.03140138 19.83509474 -0.01633201 23.66081238 -0.001463 C26.39528002 -0.00303663 29.12972382 -0.0105888 31.86418152 -0.01783568 C38.53242893 -0.03178911 45.20048733 -0.02419657 51.86872578 -0.00916009 C59.62946017 0.00767566 67.39014716 0.00449283 75.15089417 0.00074583 C88.99538434 -0.0051366 102.83978364 0.00905379 116.68424988 0.03369325 C130.12699286 0.05761517 143.56961443 0.06469802 157.01237488 0.05420107 C171.64056767 0.04279897 186.26870426 0.04085301 200.89689636 0.05529916 C202.45589701 0.05682505 204.01489766 0.0583454 205.57389832 0.05986017 C206.72457165 0.06099689 206.72457165 0.06099689 207.89849091 0.06215658 C213.31178622 0.06690489 218.7250565 0.0650441 224.13835144 0.06079477 C230.732798 0.05587466 237.32712961 0.06182303 243.9215498 0.08168907 C247.2880321 0.09157994 250.65419228 0.09504543 254.02070618 0.08879656 C257.66525436 0.08287811 261.30928015 0.09528316 264.95378113 0.11256593 C266.02467987 0.10655589 267.09557861 0.10054584 268.19892883 0.09435368 C269.17143585 0.10279362 270.14394287 0.11123356 271.1459198 0.11992925 C272.40851875 0.12147295 272.40851875 0.12147295 273.69662476 0.12304783 C276.37017018 0.59172944 277.25313732 1.33080036 278.84831238 3.50024599 C279.28190613 6.71508974 279.28190613 6.71508974 279.28581238 10.43774599 C279.31481628 12.27659364 279.31481628 12.27659364 279.34440613 14.15258974 C278.84831238 17.50024599 278.84831238 17.50024599 277.50056458 19.67772859 C273.25258209 22.59676547 268.95215335 22.05059157 263.91618347 22.00818056 C262.78852758 22.01442052 261.6608717 22.02066048 260.49904442 22.02708954 C256.70640255 22.04309162 252.91439694 22.03038645 249.12174988 22.01782411 C246.40845915 22.02104085 243.69519576 22.03021764 240.98191833 22.03906435 C234.36895999 22.05686697 227.75618307 22.05300191 221.14321756 22.04141378 C215.76957108 22.03238655 210.3959755 22.03115237 205.02232361 22.03550905 C204.25802076 22.03612198 203.49371791 22.03673491 202.70625436 22.03736642 C201.15367141 22.0386453 199.60108847 22.03994215 198.04850554 22.04125679 C183.48401528 22.05266768 168.91962565 22.03954092 154.35515189 22.01805532 C141.85347268 22.00018385 129.35194203 22.00328782 116.8502655 22.02173036 C102.33851232 22.04312811 87.82684739 22.051569 73.31508064 22.03928131 C71.76815416 22.03800709 70.22122766 22.03674961 68.67430115 22.03550905 C67.91314951 22.03489195 67.15199788 22.03427485 66.36778104 22.03363904 C60.9995146 22.03018284 55.63130405 22.03602028 50.26304626 22.04542726 C43.72242705 22.05663648 37.18199989 22.05363007 30.64140272 22.03230429 C27.3030578 22.02177889 23.96529913 22.0198432 20.62691498 22.0309009 C17.01110064 22.04177609 13.39619705 22.0281886 9.78044128 22.00818056 C8.19115846 22.02156489 8.19115846 22.02156489 6.56976891 22.03521961 C-0.48975059 21.95906214 -0.48975059 21.95906214 -3.80393982 19.66185945 C-5.66423457 16.67818686 -5.6492989 14.49471466 -5.58918762 11.00024599 C-5.58789856 9.87618349 -5.5866095 8.75212099 -5.58528137 7.59399599 C-5.0425442 3.72149295 -4.06817209 0.94580958 0 0 Z " fill="#A9A7A2" transform="translate(67.15168762207031,328.499754011631)"/>
<path d="M0 0 C0.78347307 -0.00010734 1.56694615 -0.00021467 2.37416083 -0.00032526 C3.27986663 -0.01013955 4.18557243 -0.01995384 5.11872387 -0.03006554 C6.61315678 -0.01565803 6.61315678 -0.01565803 8.13778025 -0.00095946 C9.19516132 -0.00649385 10.25254239 -0.01202825 11.34196532 -0.01773036 C14.90280634 -0.03139783 18.46295384 -0.01633405 22.02378184 -0.001463 C24.569429 -0.00524396 27.11507412 -0.01074216 29.66071421 -0.01783568 C35.86810546 -0.03038143 42.07523742 -0.0241974 48.28261577 -0.00916009 C55.50835699 0.00767938 62.73404733 0.00449231 69.9598021 0.00074583 C82.85144973 -0.00513646 95.74299977 0.00905266 108.63462168 0.03369325 C121.14898182 0.05761014 133.66321154 0.06469994 146.17759043 0.05420107 C159.79755174 0.04279518 173.41745267 0.0408581 187.03741324 0.05529916 C188.4894283 0.05682503 189.94144336 0.05834539 191.39345843 0.05986017 C192.46514355 0.06099689 192.46514355 0.06099689 193.55847887 0.06215658 C198.59710274 0.06690235 203.63569968 0.06504586 208.67432314 0.06079477 C215.45488182 0.05535735 222.23523271 0.06609664 229.01576716 0.08774942 C231.50870947 0.09332759 234.00166916 0.09377322 236.49461275 0.08879656 C239.88921793 0.08286841 243.28326456 0.09530199 246.67781931 0.11256593 C248.16890614 0.10355087 248.16890614 0.10355087 249.69011593 0.09435368 C250.59842948 0.10279362 251.50674303 0.11123356 252.44258124 0.11992925 C253.22621666 0.12095838 254.00985209 0.12198751 254.81723404 0.12304783 C257.59473666 0.60941778 258.96343686 1.53726485 260.9712916 3.50024599 C261.35020685 6.34360215 261.48636671 8.73250591 261.4087916 11.56274599 C261.41588145 12.29557802 261.42297129 13.02841005 261.43027598 13.78344911 C261.40488535 15.91040224 261.40488535 15.91040224 260.9712916 19.50024599 C257.83062389 21.59402446 257.12434377 21.75078519 253.55001169 21.75472158 C252.6402058 21.76055378 251.7303999 21.76638597 250.79302412 21.7723949 C249.79216245 21.76861557 248.79130078 21.76483625 247.76010996 21.7609424 C246.16685467 21.76668072 246.16685467 21.76668072 244.54141241 21.77253497 C240.96460377 21.78289467 237.38795476 21.77886717 233.81113535 21.77490419 C231.2540151 21.77924899 228.69689615 21.78443135 226.13977915 21.79039186 C219.90472349 21.80242147 213.66972718 21.80493037 207.43466216 21.8025916 C202.36848778 21.80081045 197.30232648 21.80255371 192.23615366 21.80681604 C191.51583238 21.80741123 190.79551109 21.80800642 190.05336189 21.80861964 C188.59016369 21.80983136 187.12696548 21.81104549 185.66376728 21.81226202 C171.9348596 21.82314425 158.20597648 21.82097171 144.47706741 21.81487717 C131.90832647 21.80970617 119.339663 21.82096708 106.77093738 21.83997539 C93.87398904 21.85933103 80.97707739 21.86761388 68.08011442 21.86385214 C60.835959 21.86193679 53.59186953 21.86446012 46.34772593 21.87856668 C39.538463 21.89169193 32.72938077 21.88925151 25.92010981 21.87615579 C23.41545281 21.87377893 20.91078504 21.87656404 18.40614039 21.88477892 C14.9980676 21.89515429 11.59052621 21.88721997 8.18247324 21.87446779 C6.68118073 21.88552922 6.68118073 21.88552922 5.14955908 21.89681411 C4.23975318 21.88960756 3.32994728 21.88240102 2.39257151 21.8749761 C1.6055186 21.87503111 0.81846569 21.87508613 0.0075627 21.87514281 C-2.58518879 21.39779267 -3.46752924 20.5977529 -5.0287084 18.50024599 C-5.4271459 15.28540224 -5.4271459 15.28540224 -5.4037084 11.56274599 C-5.41144277 10.33684755 -5.41917715 9.11094911 -5.4271459 7.84790224 C-4.96364491 3.9535851 -4.11322194 1.0142526 0 0 Z " fill="#A9A7A2" transform="translate(67.02870839834213,217.499754011631)"/>
<path d="M0 0 C1.18308156 -0.0083016 1.18308156 -0.0083016 2.39006376 -0.0167709 C5.03579332 -0.03039595 7.68058253 -0.01539857 10.32629395 -0.00050354 C12.22185162 -0.00428605 14.11740653 -0.00978553 16.01295471 -0.01687622 C21.16376577 -0.03085697 26.31424377 -0.01964263 31.46503639 -0.00316501 C36.85104267 0.0106681 42.23702926 0.0042274 47.62304688 0.0007019 C56.66855243 -0.00200159 65.7139254 0.01148742 74.75939941 0.03465271 C85.22271559 0.06126329 95.68581005 0.06301004 106.14914846 0.05126435 C116.20745784 0.04049151 126.26568688 0.04666976 136.32398987 0.06081963 C140.60781245 0.06658371 144.89157632 0.06649342 149.17539978 0.06175423 C154.21840848 0.05698789 159.26117387 0.06707194 164.30413628 0.08870888 C166.15689206 0.09428159 168.0096712 0.09473762 169.86242867 0.08975601 C172.38780539 0.0838166 174.91243483 0.0962821 177.43774414 0.11352539 C178.54260391 0.10451032 178.54260391 0.10451032 179.66978407 0.09531313 C182.74268235 0.13357716 184.93481737 0.35153055 187.67418671 1.7949667 C190.22268298 4.61000152 189.75545937 7.90849171 189.65637207 11.50120544 C189.66346191 12.22565857 189.67055176 12.95011169 189.67785645 13.69651794 C189.61601778 18.85291151 189.61601778 18.85291151 188.17337036 21.20786476 C185.14493844 23.21185434 182.024609 22.9137375 178.51330566 22.88215637 C177.72064993 22.88683634 176.92799419 22.89151632 176.11131859 22.89633811 C173.44648037 22.90833574 170.7821519 22.89881242 168.11730957 22.88938904 C166.21042581 22.89345263 164.3035444 22.8987933 162.39666748 22.90531921 C157.21080022 22.91902393 152.02511151 22.91368115 146.83924103 22.90418196 C141.41939299 22.89660169 135.99956053 22.90362642 130.57971191 22.90834045 C121.47698208 22.91380277 112.37432521 22.90659389 103.27160645 22.89231873 C92.73842968 22.87599132 82.2054271 22.88127949 71.67225456 22.89779794 C62.63866113 22.91139923 53.60512022 22.91333912 44.57151985 22.90548193 C39.17177601 22.90079795 33.77211411 22.90020046 28.37237549 22.9100914 C23.29656546 22.91873906 18.22098063 22.91277951 13.14519501 22.89540863 C11.27911504 22.891432 9.41301621 22.89259784 7.54694366 22.89919662 C5.0058502 22.9073559 2.46548512 22.89715914 -0.07556152 22.88215637 C-0.81962061 22.88884854 -1.5636797 22.8955407 -2.33028603 22.90243566 C-7.30925911 22.84514546 -7.30925911 22.84514546 -9.70022583 21.10239601 C-11.98065671 17.72428765 -12.00693193 15.18722842 -12.09362793 11.12620544 C-12.13101074 9.98409607 -12.16839355 8.84198669 -12.20690918 7.66526794 C-11.78112793 4.50120544 -11.78112793 4.50120544 -10.2408371 2.33477688 C-6.90226952 -0.15393285 -4.00373328 -0.05220918 0 0 Z " fill="#A9A7A1" transform="translate(73.7811279296875,446.49879455566406)"/>
<path d="M0 0 C1.19026524 -0.0083016 1.19026524 -0.0083016 2.40457624 -0.0167709 C5.06645734 -0.03039639 7.72740389 -0.01539837 10.38926697 -0.00050354 C12.29629922 -0.004286 14.20332874 -0.00978544 16.11035156 -0.01687622 C21.29208553 -0.03085663 26.47348842 -0.01964329 31.65520406 -0.00316501 C37.07237473 0.01066639 42.48952581 0.00422767 47.90670776 0.0007019 C57.00348763 -0.0020015 66.10013565 0.0114874 75.19688416 0.03465271 C85.72270392 0.06127122 96.2483033 0.06300748 106.77414519 0.05126435 C116.89012292 0.04049607 127.00602073 0.04666564 137.12199211 0.06081963 C141.43176087 0.06658688 145.74147128 0.06649096 150.05124092 0.06175423 C155.12297324 0.05699202 160.19446331 0.06705468 165.26614952 0.08870888 C167.13061328 0.09428696 168.99510027 0.09473273 170.85956573 0.08975601 C173.39842916 0.08382759 175.9365458 0.09626069 178.4753418 0.11352539 C179.21871876 0.10751535 179.96209573 0.1015053 180.72799927 0.09531313 C183.63009059 0.13137086 185.67851255 0.16993768 188.13045406 1.80863857 C189.89013297 4.66223908 189.60481364 7.7558558 189.54917908 11.00120544 C189.56078064 11.67796326 189.5723822 12.35472107 189.58433533 13.05198669 C189.56858754 15.71336216 189.55118047 17.88819686 188.13324738 20.19377232 C185.09678307 22.22023256 181.95950261 21.9172411 178.4306488 21.8888855 C177.23553987 21.8969638 177.23553987 21.8969638 176.01628733 21.90520531 C173.33764252 21.91955103 170.6594873 21.91236504 167.9808197 21.90525818 C166.06408285 21.91095826 164.1473494 21.9179211 162.23062134 21.92605591 C157.01790518 21.94404144 151.80535685 21.94280894 146.59261894 21.93711352 C142.24589966 21.93402979 137.89921299 21.94010494 133.55249834 21.94615227 C123.30152724 21.9602133 113.05063945 21.95862279 102.79966736 21.94725037 C92.21192299 21.93576415 81.62443176 21.94984975 71.03672075 21.97664684 C61.95641557 21.99877123 52.87619005 22.00544869 43.79585981 21.99957043 C38.36813771 21.99619224 32.94057795 21.99867307 27.51287842 22.01582146 C22.41075623 22.03123689 17.30901048 22.02739536 12.20690346 22.00851631 C10.33114509 22.00481556 8.45535916 22.00798185 6.57962608 22.0184021 C4.02521376 22.03151254 1.47206607 22.02015424 -1.08229065 22.00241089 C-1.83024068 22.0120159 -2.57819072 22.0216209 -3.3488059 22.03151697 C-6.60285689 21.98478461 -8.35936597 21.93931727 -10.78269196 19.66323948 C-12.21449105 16.69563099 -12.25955426 14.28573802 -12.26332092 11.00120544 C-12.28265686 9.87714294 -12.3019928 8.75308044 -12.32191467 7.59495544 C-11.17618753 0.44994838 -6.35022011 -0.08229672 0 0 Z " fill="#A9A7A2" transform="translate(73.82582092285156,138.49879455566406)"/>
<path d="M0 0 C1.65512604 -0.01041573 1.65512604 -0.01041573 3.34368896 -0.02104187 C4.54954147 -0.00823181 5.75539398 0.00457825 6.99778748 0.01777649 C8.90801193 0.01449089 8.90801193 0.01449089 10.85682678 0.01113892 C14.34655833 0.00572095 17.83575871 0.02512642 21.32539487 0.04923987 C24.97683135 0.07053697 28.62826592 0.06994114 32.27975464 0.07192993 C38.41063071 0.07837686 44.54130722 0.09962209 50.67210388 0.13105774 C58.54338907 0.17136439 66.41454427 0.18874811 74.28592014 0.19836712 C81.05163792 0.20666727 87.81732813 0.22390371 94.58302188 0.24340463 C96.03559244 0.24745399 97.4881639 0.25119349 98.94073606 0.25462699 C103.7150204 0.26591391 108.48917805 0.28607615 113.26341248 0.31074524 C114.47128922 0.31343414 115.67916595 0.31612305 116.92364502 0.31889343 C118.57454132 0.32962639 118.57454132 0.32962639 120.25878906 0.34057617 C121.69590665 0.34698639 121.69590665 0.34698639 123.16205692 0.35352612 C125.56590271 0.48774719 125.56590271 0.48774719 128.56590271 1.48774719 C130.99527106 5.13179971 130.89537613 7.08656419 130.94090271 11.42524719 C130.96926208 12.65114563 130.99762146 13.87704407 131.02684021 15.14009094 C130.47599934 19.14068946 129.68597754 20.02905947 126.56590271 22.48774719 C124.02339172 22.99111176 124.02339172 22.99111176 121.10057068 22.99568176 C119.99018433 23.00696106 118.87979797 23.01824036 117.73576355 23.02986145 C116.52213135 23.02176453 115.30849915 23.0136676 114.05809021 23.00532532 C112.13564484 23.01583923 112.13564484 23.01583923 110.17436218 23.02656555 C106.66189182 23.04479576 103.14989157 23.03773304 99.63741302 23.02504921 C95.96105688 23.01491979 92.28474091 23.02431471 88.60838318 23.03059387 C82.43464432 23.03787048 76.26109688 23.02828236 70.08738708 23.00923157 C62.95040738 22.98746261 55.81388475 22.99451398 48.67691612 23.01653719 C42.5485461 23.03469094 36.42031365 23.0372497 30.29192543 23.02678251 C26.63201531 23.02054737 22.97232001 23.0197123 19.31242371 23.03292847 C15.23257898 23.04663209 11.15352181 23.02763791 7.07371521 23.00532532 C5.86008301 23.01342224 4.64645081 23.02151917 3.39604187 23.02986145 C1.73046234 23.0129425 1.73046234 23.0129425 0.03123474 22.99568176 C-0.9332962 22.99417366 -1.89782715 22.99266556 -2.8915863 22.99111176 C-6.19693189 22.33672173 -7.38803241 21.11881993 -9.43409729 18.48774719 C-9.96534729 15.17524719 -9.96534729 15.17524719 -9.93409729 11.48774719 C-9.94440979 10.27087219 -9.95472229 9.05399719 -9.96534729 7.80024719 C-9.00613943 1.81930407 -5.81091636 -0.01448009 0 0 Z " fill="#A9A7A2" transform="translate(71.43409729003906,65.51225280761719)"/>
<path d="M0 0 C0.33 0.66 0.66 1.32 1 2 C-6.36944419 11.48815939 -13.20382576 14.51301149 -25 16 C-29.9602574 16.27045728 -34.91374269 16.27092938 -39.87971497 16.25396729 C-41.36258382 16.2562757 -42.84545152 16.25945477 -44.32831687 16.26342177 C-48.37699019 16.27172717 -52.42556854 16.26766386 -56.47424209 16.26144934 C-60.85147659 16.2569079 -65.22869521 16.26391727 -69.60592651 16.26940918 C-78.17372814 16.27828925 -86.74149467 16.27638663 -95.30929766 16.2705839 C-102.28110357 16.26605872 -109.25289969 16.26545822 -116.22470665 16.26763153 C-117.21876976 16.267938 -118.21283288 16.26824446 -119.23701912 16.26856022 C-121.25687316 16.26919971 -123.2767272 16.26984814 -125.29658123 16.2705054 C-144.22852555 16.27620548 -163.16045049 16.26965754 -182.09239163 16.25890467 C-198.29785091 16.24998462 -214.50328149 16.25150904 -230.70874023 16.26074219 C-249.55800828 16.27147674 -268.40725931 16.27564026 -287.25652999 16.26951766 C-289.27212663 16.26888062 -291.28772328 16.26825188 -293.30331993 16.26763153 C-294.29482321 16.26732298 -295.28632648 16.26701443 -296.30787531 16.26669653 C-303.25673056 16.26497798 -310.20557492 16.26786678 -317.15442848 16.27259064 C-325.64460251 16.27823563 -334.13473963 16.27660836 -342.6249095 16.26602915 C-346.94762582 16.26081833 -351.2702809 16.2586358 -355.5929966 16.26532745 C-385.33476769 16.30709083 -385.33476769 16.30709083 -398.82963562 15.19866943 C-399.69182577 15.13324267 -400.55401592 15.0678159 -401.44233304 15.0004065 C-408.26850455 14.32479567 -413.16665488 11.96606856 -418 7 C-418.57363281 6.47277344 -419.14726562 5.94554687 -419.73828125 5.40234375 C-421 4 -421 4 -421 2 C-419 2 -419 2 -417.375 3.5 C-416.92125 3.995 -416.4675 4.49 -416 5 C-415.67 3.68 -415.34 2.36 -415 1 C-414.67 1.66 -414.34 2.32 -414 3 C-413.01 3.33 -412.02 3.66 -411 4 C-410.01 5.485 -410.01 5.485 -409 7 C-401.47838735 9.78231292 -393.55039345 9.28526271 -385.64102173 9.26742554 C-384.06969306 9.27116487 -382.49836625 9.27576752 -380.92704237 9.28115618 C-376.62040223 9.29336635 -372.3138399 9.29312806 -368.00718641 9.29076743 C-363.35813677 9.29035877 -358.70911191 9.30140302 -354.06007385 9.31088257 C-344.95647236 9.32748198 -335.85289678 9.33299161 -326.74928142 9.33410732 C-319.34919143 9.33505817 -311.94910997 9.3391703 -304.54902267 9.34550858 C-283.56334184 9.36311705 -262.57768144 9.3723479 -241.59199317 9.37084763 C-240.46109831 9.37076772 -239.33020346 9.3706878 -238.16503906 9.37060547 C-237.03276195 9.37052371 -235.90048484 9.37044195 -234.7338963 9.37035771 C-216.37942343 9.36954462 -198.02503258 9.3886891 -179.67058344 9.4168822 C-160.81940917 9.44560963 -141.96827491 9.45942262 -123.11707819 9.45769465 C-112.5354919 9.45703077 -101.95399164 9.46252258 -91.37242508 9.48405075 C-82.36431777 9.50226052 -73.35633549 9.50661143 -64.34821774 9.4930319 C-59.75353115 9.48650164 -55.15908447 9.48638728 -50.5644207 9.5037384 C-46.35497445 9.51947119 -42.1459583 9.5166035 -37.93652253 9.49917014 C-36.41707639 9.49610073 -34.89759813 9.49973045 -33.37818988 9.51089029 C-22.23213969 9.58730819 -13.70660552 8.38742286 -5 1 C-4.01 1 -3.02 1 -2 1 C-1.34 0.67 -0.68 0.34 0 0 Z " fill="#C5C3BD" transform="translate(431,546)"/>
<path d="M0 0 C1.62073842 -0.00874829 1.62073842 -0.00874829 3.27421904 -0.01767331 C5.06149625 -0.01200433 5.06149625 -0.01200433 6.88488007 -0.00622082 C8.14714432 -0.01004636 9.40940858 -0.01387191 10.70992327 -0.01781338 C14.22047073 -0.02813283 17.73091652 -0.0259016 21.24147248 -0.02163279 C25.02475488 -0.01917272 28.80801235 -0.0281707 32.59128571 -0.03567028 C40.00544364 -0.04843897 47.4195654 -0.05020831 54.83373249 -0.04787002 C60.8576675 -0.04608927 66.88159151 -0.04783125 72.90552521 -0.05209446 C73.76183919 -0.05268965 74.61815318 -0.05328484 75.50041607 -0.05389806 C77.23982728 -0.05510977 78.97923848 -0.0563239 80.71864969 -0.05754044 C97.04137718 -0.06842415 113.36408403 -0.06624944 129.6868127 -0.06015559 C144.63199719 -0.05498455 159.57711654 -0.06624534 174.52228814 -0.08525381 C189.85554205 -0.10460692 205.1887651 -0.11289274 220.52203131 -0.10913056 C229.1355208 -0.10721481 237.74895483 -0.10974238 246.36243439 -0.1238451 C253.69430904 -0.13572766 261.02609407 -0.13719901 268.35796988 -0.12505493 C272.1011132 -0.11914441 275.84409234 -0.11812634 279.58722496 -0.13005733 C283.63896757 -0.14282233 287.69031535 -0.13250366 291.7420578 -0.11974621 C292.93357594 -0.12712049 294.12509408 -0.13449478 295.35271883 -0.14209253 C296.97345725 -0.13128271 296.97345725 -0.13128271 298.62693787 -0.12025452 C299.56284114 -0.12030953 300.49874442 -0.12036455 301.4630084 -0.12042123 C304.22153094 0.3195612 305.10078374 1.10374783 306.81346893 3.25447559 C306.48346893 3.91447559 306.15346893 4.57447559 305.81346893 5.25447559 C305.26201267 4.76682468 304.71055641 4.27917377 304.14238936 3.77674556 C301.34790732 1.95016702 299.86377653 1.88515719 296.55074215 1.89815617 C294.94269243 1.89349649 294.94269243 1.89349649 293.30215687 1.88874269 C291.53675819 1.90666371 291.53675819 1.90666371 289.73569489 1.92494678 C288.48482686 1.9257615 287.23395884 1.92657621 285.94518572 1.92741561 C282.47099145 1.93009996 278.99712795 1.95161016 275.52302873 1.97616267 C271.77729686 1.99936569 268.03153333 2.00520913 264.28574371 2.01318836 C256.94718258 2.03156268 249.60877917 2.06596993 242.2703058 2.10566673 C233.72925682 2.15123126 225.18817549 2.18063094 216.64705569 2.20924196 C201.41104161 2.26079802 186.17512191 2.32653946 170.93920135 2.40047169 C156.14528347 2.47224206 141.35136601 2.53491281 126.55736542 2.58699512 C125.64609187 2.59020489 124.73481833 2.59341465 123.79593044 2.59672168 C121.96022778 2.60318122 120.12452511 2.60964005 118.28882245 2.61609815 C116.9306063 2.62087892 116.9306063 2.62087892 115.54495144 2.62575626 C114.64180187 2.62893207 113.73865229 2.63210788 112.80813455 2.63537993 C98.72267234 2.68523612 84.63723986 2.74269646 70.55181141 2.80123217 C65.44165743 2.82240548 60.33150066 2.84259758 55.22134011 2.86211666 C47.11685714 2.89314891 39.01240279 2.92749225 30.90796416 2.96860442 C27.2033571 2.98734682 23.49876058 3.00454793 19.79412842 3.01751995 C15.78413254 3.03163878 11.77421613 3.05342614 7.76425934 3.07606983 C5.99551458 3.08060653 5.99551458 3.08060653 4.1910376 3.08523488 C3.1216122 3.09255942 2.0521868 3.09988396 0.95035458 3.10743046 C0.02410666 3.11171472 -0.90214126 3.11599898 -1.85645729 3.12041306 C-4.34368084 3.16174076 -4.34368084 3.16174076 -7.18653107 4.25447559 C-7.91976903 6.26955918 -7.91976903 6.26955918 -8.18653107 8.25447559 C-8.37403107 5.37947559 -8.37403107 5.37947559 -8.18653107 2.25447559 C-4.86820571 0.04225869 -3.86138984 0.00357619 0 0 Z " fill="#95938C" transform="translate(71.18653106689453,407.7455244064331)"/>
<path d="M0 0 C1.61476528 -0.00576172 1.61476528 -0.00576172 3.26215208 -0.01163983 C4.4594959 -0.01077335 5.65683972 -0.00990687 6.89046669 -0.00901413 C8.1510221 -0.01198525 9.4115775 -0.01495637 10.71033156 -0.01801753 C14.22537073 -0.02611602 17.74038951 -0.02787868 21.2554369 -0.028615 C25.04011207 -0.03046062 28.82477655 -0.03800544 32.60944557 -0.04475021 C40.89238001 -0.05835421 49.17530963 -0.06436145 57.45825338 -0.06876087 C62.62612543 -0.07151978 67.7939956 -0.07575647 72.96186638 -0.08026505 C87.25859332 -0.09246035 101.55531875 -0.10275919 115.85205078 -0.10614014 C117.22560389 -0.10646949 117.22560389 -0.10646949 118.62690554 -0.10680549 C120.00382221 -0.10713291 120.00382221 -0.10713291 121.40855539 -0.10746694 C123.26878762 -0.10791041 125.12901986 -0.10835697 126.98925209 -0.10880661 C127.91199962 -0.10902804 128.83474715 -0.10924947 129.78545673 -0.10947761 C144.74369791 -0.11342722 159.70189042 -0.13088505 174.66011278 -0.15416613 C190.00233924 -0.17785295 205.34454125 -0.19034077 220.68678629 -0.19150805 C229.30701764 -0.19242632 237.92718559 -0.19821648 246.54739952 -0.21632767 C253.88663605 -0.23169269 261.2257896 -0.2368705 268.56503914 -0.22858956 C272.31222335 -0.22467023 276.05924026 -0.22567468 279.80640411 -0.23964691 C283.86262336 -0.25463373 287.91846204 -0.24655746 291.97469521 -0.23606491 C293.76401877 -0.24814952 293.76401877 -0.24814952 295.58949029 -0.26047826 C297.21207881 -0.25059349 297.21207881 -0.25059349 298.8674469 -0.24050903 C299.80443432 -0.24110612 300.74142174 -0.24170321 301.70680273 -0.24231839 C304.46755658 0.19623901 305.34613528 0.97887197 307.05956459 3.13142776 C306.72956459 4.12142776 306.39956459 5.11142776 306.05956459 6.13142776 C305.67083497 5.64415657 305.28210534 5.15688538 304.88159603 4.6548484 C302.45470462 2.62569766 301.04774252 2.75651172 297.90706158 2.75669765 C296.83415278 2.74949111 295.76124399 2.74228457 294.65582281 2.73485965 C292.88124163 2.74592107 292.88124163 2.74592107 291.07081032 2.75720596 C289.81741873 2.75323156 288.56402715 2.74925715 287.272654 2.74516231 C283.78678257 2.73454668 280.30116647 2.74272289 276.81530607 2.75391281 C273.05858947 2.76273511 269.30190701 2.75431699 265.54519081 2.74805069 C258.18280881 2.73854883 250.82052462 2.74517479 243.45814986 2.75731363 C234.88906172 2.77091703 226.31999704 2.76929722 217.75090086 2.7671803 C202.46338779 2.76398834 187.17592127 2.77566961 171.88842201 2.79524612 C157.04595967 2.81424782 142.2035519 2.8213348 127.36107826 2.81575394 C111.20971844 2.80969891 95.05838263 2.80986839 78.9070248 2.82123977 C77.18539457 2.82244709 75.46376433 2.82365308 73.74213409 2.82485771 C72.89500005 2.82546125 72.04786601 2.82606479 71.17506124 2.82668662 C65.19868385 2.83056956 59.22231539 2.83017067 53.24593735 2.82827187 C45.96423932 2.82615178 38.68258914 2.83135975 31.4009046 2.84588542 C27.68400286 2.85313937 23.96717088 2.85719795 20.25026321 2.85264206 C16.22520712 2.84782841 12.20034272 2.85846157 8.17530251 2.87073135 C6.4040674 2.86506237 6.4040674 2.86506237 4.59704977 2.85927886 C3.52153323 2.86511105 2.44601669 2.87094324 1.33790874 2.87695217 C0.40846071 2.87781895 -0.52098732 2.87868573 -1.47860044 2.87957877 C-4.07031654 3.14471478 -5.71124175 3.81789303 -7.94043541 5.13142776 C-5.6854093 0.47104047 -5.24064058 0.00697417 0 0 Z " fill="#9D9B95" transform="translate(70.9404354095459,367.8685722351074)"/>
<path d="M0 0 C1.40287676 0.00056958 1.40287676 0.00056958 2.83409446 0.00115067 C3.90897135 -0.00084038 4.98384824 -0.00283143 6.09129715 -0.00488281 C7.28679638 -0.00196997 8.48229562 0.00094287 9.7140221 0.00394398 C10.97261065 0.00308955 12.2311992 0.00223513 13.5279268 0.00135481 C17.03736355 -0.00089251 20.54677006 0.00313436 24.05620295 0.00813287 C27.83468013 0.01243381 31.61315547 0.01099121 35.3916344 0.0102306 C41.94341734 0.00970514 48.49519035 0.01285426 55.04697078 0.01846844 C64.51985504 0.02658043 73.99273447 0.02919835 83.46562182 0.03045643 C98.83312821 0.03264743 114.20062931 0.03930879 129.56813282 0.04875904 C144.50009869 0.05793194 159.43206313 0.06501337 174.36403126 0.06926686 C175.74362913 0.06966094 175.74362913 0.06966094 177.15109766 0.07006299 C181.76492097 0.07136798 186.37874428 0.0726317 190.9925676 0.07387489 C229.2953476 0.08424898 267.5981217 0.10186858 305.90089649 0.1241985 C305.90089649 0.7841985 305.90089649 1.4441985 305.90089649 2.1241985 C153.93589649 2.6191985 153.93589649 2.6191985 -1.09910351 3.1241985 C-1.09910351 4.1141985 -1.09910351 5.1041985 -1.09910351 6.1241985 C-2.41910351 5.7941985 -3.73910351 5.4641985 -5.09910351 5.1241985 C-2.69686213 0.15956632 -2.69686213 0.15956632 0 0 Z " fill="#A09F99" transform="translate(68.09910351037979,177.8758015036583)"/>
<path d="M0 0 C1.98 0.99 3.96 1.98 6 3 C6 2.34 6 1.68 6 1 C11 3 16 5 21 7 C21 7.66 21 8.32 21 9 C23.94401024 10.47200512 26.92459496 10.15289913 30.15258789 10.15771484 C30.88944824 10.16279556 31.62630859 10.16787628 32.38549805 10.17311096 C33.98913948 10.18382502 35.59279596 10.19244113 37.19645882 10.19923019 C39.7405437 10.2110204 42.28445892 10.230477 44.82847595 10.25234985 C52.06324547 10.31393689 59.29800069 10.36786751 66.53295898 10.40136719 C70.95745487 10.42240554 75.3816463 10.45778959 79.80596733 10.50212479 C81.48709954 10.51622151 83.16828567 10.52499283 84.84947395 10.52817917 C97.35248207 10.55436741 107.33957203 11.21504951 117.1875 19.9375 C119.16705266 22.1900944 120.68522428 24.30124985 122 27 C121.505 28.485 121.505 28.485 121 30 C120.505 28.515 120.505 28.515 120 27 C118.21137595 25.86002823 118.21137595 25.86002823 116 25 C115.21882813 24.67 114.43765625 24.34 113.6328125 24 C112.80523437 23.67 111.97765625 23.34 111.125 23 C110.30257812 22.67 109.48015625 22.34 108.6328125 22 C107.76398438 21.67 106.89515625 21.34 106 21 C105.10764648 20.65340332 104.21529297 20.30680664 103.29589844 19.94970703 C99.58582414 18.88065599 96.49027551 18.77280764 92.6328125 18.8046875 C91.95322479 18.8075174 91.27363708 18.81034729 90.57345581 18.81326294 C88.42378392 18.82437036 86.27454386 18.84945609 84.125 18.875 C82.65886023 18.88504205 81.19271386 18.89416575 79.7265625 18.90234375 C76.15090369 18.92427841 72.57549406 18.95874186 69 19 C69 18.67 69 18.34 69 18 C71.31 17.67 73.62 17.34 76 17 C69.97125218 16.05431407 64.16438757 15.97472178 58.06640625 16.03125 C54.59700906 15.99589309 51.41093 15.59320522 48 15 C47.01 15 46.02 15 45 15 C44.505 13.515 44.505 13.515 44 12 C43.278125 12.66 42.55625 13.32 41.8125 14 C39 16 39 16 36.3125 16.4375 C35.549375 16.293125 34.78625 16.14875 34 16 C33.34 15.01 32.68 14.02 32 13 C29.4467147 12.41498471 29.4467147 12.41498471 26.5625 12.3125 C25.59441406 12.24675781 24.62632812 12.18101562 23.62890625 12.11328125 C21.75396413 12.0324888 19.87668201 12 18 12 C17.01 11.67 16.02 11.34 15 11 C13.7625 10.7834375 13.7625 10.7834375 12.5 10.5625 C10 10 10 10 7 8 C7 7.34 7 6.68 7 6 C5.35 5.67 3.7 5.34 2 5 C2 4.34 2 3.68 2 3 C1.34 3 0.68 3 0 3 C0 2.01 0 1.02 0 0 Z " fill="#B7B4AC" transform="translate(308,122)"/>
<path d="M0 0 C0.79180131 -0.00297112 1.58360262 -0.00594224 2.39939791 -0.0090034 C5.06718423 -0.01771316 7.73492579 -0.01920055 10.40272522 -0.02069092 C12.3094594 -0.02531742 14.21619264 -0.03034185 16.1229248 -0.03573608 C21.31292458 -0.04887675 26.5029114 -0.05530808 31.69292521 -0.05974674 C34.93226405 -0.06267428 38.17159931 -0.06677843 41.41093636 -0.07125092 C51.53703131 -0.08492912 61.66311815 -0.09459467 71.7892217 -0.09845281 C83.49551748 -0.10293702 95.2016967 -0.12050044 106.90795702 -0.1494534 C115.9457638 -0.17103412 124.9835377 -0.18115512 134.02136999 -0.18249393 C139.42449865 -0.18354438 144.82751779 -0.18950335 150.23061943 -0.20731354 C155.31049541 -0.22373232 160.39017881 -0.22598002 165.47007179 -0.21717453 C167.33777251 -0.21640087 169.20548332 -0.22078989 171.07315826 -0.23063278 C173.6164691 -0.24325369 176.1590876 -0.23752981 178.70239258 -0.22705078 C179.81950439 -0.23913539 179.81950439 -0.23913539 180.95918411 -0.25146413 C183.87169807 -0.22326061 185.917827 -0.1918395 188.37839603 1.45369339 C190.11898528 4.28681001 189.69183745 7.07068245 189.60218811 10.32794189 C189.56158264 12.23639893 189.56158264 12.23639893 189.52015686 14.18341064 C189.48535217 15.15923096 189.45054749 16.13505127 189.41468811 17.14044189 C189.08468811 17.14044189 188.75468811 17.14044189 188.41468811 17.14044189 C188.08468811 12.52044189 187.75468811 7.90044189 187.41468811 3.14044189 C122.40468811 3.14044189 57.39468811 3.14044189 -9.58531189 3.14044189 C-9.58531189 2.48044189 -9.58531189 1.82044189 -9.58531189 1.14044189 C-6.53286311 -0.3857825 -3.34911275 -0.00388495 0 0 Z " fill="#999993" transform="translate(73.58531188964844,138.85955810546875)"/>
<path d="M0 0 C0.90371476 -0.00583219 1.80742951 -0.01166439 2.73852956 -0.01767331 C4.23733173 -0.01200433 4.23733173 -0.01200433 5.76641273 -0.00622082 C7.35120271 -0.01195914 7.35120271 -0.01195914 8.96800864 -0.01781338 C12.53176989 -0.02818683 16.09537133 -0.02414299 19.65914345 -0.02018261 C22.2046416 -0.0245267 24.75013844 -0.02970883 27.29563332 -0.03567028 C33.50642978 -0.04770737 39.71716667 -0.05020763 45.92797254 -0.04787002 C50.97509286 -0.04608948 56.02220003 -0.04783082 61.06931877 -0.05209446 C61.78671146 -0.05268965 62.50410415 -0.05328484 63.24323601 -0.05389806 C64.70047302 -0.05510977 66.15771003 -0.05632391 67.61494704 -0.05754044 C81.29285307 -0.06842645 94.97073447 -0.06624861 108.6486419 -0.06015559 C121.16827204 -0.0549868 133.68782436 -0.06623896 146.20743911 -0.08525381 C159.05351009 -0.10461532 171.89954423 -0.1128911 184.74562991 -0.10913056 C191.9613276 -0.10721577 199.17695906 -0.10973286 206.39264488 -0.1238451 C213.17727458 -0.13697959 219.96172299 -0.13452182 226.74636078 -0.12143421 C229.24092155 -0.11905903 231.73549315 -0.12183653 234.2300415 -0.13005733 C237.62687051 -0.14044697 241.02316787 -0.13248659 244.41997719 -0.11974621 C245.41471719 -0.12712049 246.40945719 -0.13449478 247.43434083 -0.14209253 C248.34327109 -0.13488598 249.25220134 -0.12767944 250.18867493 -0.12025452 C250.97285242 -0.12030953 251.75702992 -0.12036455 252.56497037 -0.12042123 C255.33362821 0.36118468 256.7115128 1.30914191 258.7201786 3.25447559 C259.1108036 6.60994434 259.1108036 6.60994434 258.9701786 10.44197559 C258.93408485 11.71428028 258.8979911 12.98658497 258.8608036 14.29744434 C258.81439735 15.27326466 258.7679911 16.24908497 258.7201786 17.25447559 C258.0601786 16.92447559 257.4001786 16.59447559 256.7201786 16.25447559 C256.7201786 12.29447559 256.7201786 8.33447559 256.7201786 4.25447559 C251.30470287 3.12597064 246.06844177 3.12011255 240.56583595 3.1409502 C239.54602156 3.14080134 238.52620717 3.14065248 237.47548932 3.14049911 C234.06004241 3.14119331 230.64464936 3.14903425 227.22921181 3.15681934 C224.78002388 3.15873854 222.33083556 3.16020233 219.88164711 3.16124439 C214.60899329 3.16440544 209.33635582 3.17056119 204.06370926 3.1793108 C196.43712839 3.19187376 188.81055271 3.1979435 181.1839632 3.20224416 C168.8053245 3.20930739 156.42669235 3.22010713 144.04805946 3.23396778 C142.93733476 3.2352095 142.93733476 3.2352095 141.80417117 3.2364763 C136.54700687 3.24237779 131.28984272 3.24841244 126.0326786 3.25447559 C120.02218066 3.26140575 114.01168265 3.2682723 108.00118446 3.27498341 C107.26069512 3.27581153 106.52020577 3.27663966 105.75727735 3.27749288 C93.42072943 3.29116774 81.0841814 3.30093223 68.74762791 3.30789375 C61.13742323 3.31237919 53.52723792 3.32042796 45.91704228 3.33303857 C40.09259643 3.34244205 34.26815395 3.34680513 28.44370079 3.34928989 C26.05030619 3.35116849 23.65691226 3.35478239 21.2635231 3.36022282 C18.00685634 3.36739491 14.75024359 3.36847854 11.49357033 3.36800098 C10.059548 3.37339343 10.059548 3.37339343 8.59655553 3.37889481 C7.72691708 3.37752046 6.85727863 3.37614611 5.9612875 3.37473011 C4.83327055 3.3761128 4.83327055 3.3761128 3.68246537 3.37752342 C1.7201786 3.25447559 1.7201786 3.25447559 -1.2798214 2.25447559 C-1.6098214 3.24447559 -1.9398214 4.23447559 -2.2798214 5.25447559 C-2.9398214 5.25447559 -3.5998214 5.25447559 -4.2798214 5.25447559 C-4.9398214 6.57447559 -5.5998214 7.89447559 -6.2798214 9.25447559 C-6.4048214 5.87947559 -6.4048214 5.87947559 -6.2798214 2.25447559 C-3.86116548 -0.16418032 -3.3055353 0.00365523 0 0 Z " fill="#9D9C97" transform="translate(69.27982139587402,217.7455244064331)"/>
<path d="M0 0 C5.35526339 1.41756972 8.24950747 4.35956005 11 9 C14.54573172 19.26776152 15.5685144 29.25978527 15.4858551 40.05996132 C15.46819512 42.43799937 15.4763066 44.81486392 15.4901123 47.19291687 C15.51512084 52.23286378 15.5100069 57.27251666 15.5 62.3125 C15.48839213 68.18118648 15.48986029 74.04928455 15.52406311 79.91789818 C15.53106519 82.23950604 15.5146119 84.56013768 15.49694824 86.88166809 C15.49965339 97.00279481 17.39283353 104.95627589 22 114 C21.01 114.495 21.01 114.495 20 115 C19.67 113.68 19.34 112.36 19 111 C17.35 111 15.7 111 14 111 C13.46635113 108.94077867 12.94857811 106.87743893 12.4375 104.8125 C12.14746094 103.66394531 11.85742188 102.51539062 11.55859375 101.33203125 C11.00622825 98.03715171 11.20362621 96.18549515 12 93 C12.41315355 85.30805311 11.74780915 77.65169 11 70 C10.67 70 10.34 70 10 70 C9.505 62.575 9.505 62.575 9 55 C8.67 55 8.34 55 8 55 C7.97287934 53.56260487 7.95354933 52.12506137 7.9375 50.6875 C7.92589844 49.88699219 7.91429687 49.08648437 7.90234375 48.26171875 C8 46 8 46 9 43 C10.40408649 27.49694847 8.57796039 13.2888075 0 0 Z M10 82 C10.99 82.495 10.99 82.495 12 83 C11.34 83.66 10.68 84.32 10 85 C10 84.01 10 83.02 10 82 Z " fill="#C3C0B7" transform="translate(286,7)"/>
<path d="M0 0 C0.33 0 0.66 0 1 0 C1.18013993 15.83319908 1.34457011 31.66653956 1.5 47.5 C1.51202454 48.71839947 1.52404907 49.93679893 1.53643799 51.1921196 C1.85430859 83.67144947 2.04349702 116.14800793 2.03125 148.62890625 C2.03100264 149.39045942 2.03075527 150.15201259 2.03050041 150.93664312 C2.02532971 165.99190952 2.01055967 181.04714972 1.97678709 196.10238034 C1.96414799 201.77694759 1.95475133 207.45151492 1.94738436 213.12609142 C1.9411854 217.6219768 1.92751288 222.1178006 1.91223145 226.61366272 C1.88372667 240.58702715 2.12736875 254.52355638 2.68589783 268.48444462 C3.0505988 278.05237782 2.85009247 287.46588602 2 297 C1.34 297.33 0.68 297.66 0 298 C-0.20373223 269.52093524 -0.3901494 241.04177192 -0.5625 212.5625 C-0.56888284 211.5110966 -0.57526568 210.45969319 -0.58184195 209.37642908 C-0.91363873 154.56007733 -1.15212395 99.75270813 -0.5625 44.9375 C-0.54968616 43.74463001 -0.53687233 42.55176003 -0.5236702 41.32274246 C-0.37360591 27.54814945 -0.20216494 13.7739271 0 0 Z " fill="#D4D4D0" transform="translate(3,32)"/>
<path d="M0 0 C1.26617744 0.00056958 1.26617744 0.00056958 2.55793422 0.00115067 C4.01349675 -0.00183591 4.01349675 -0.00183591 5.49846458 -0.00488281 C6.57723537 -0.00196997 7.65600615 0.00094287 8.76746696 0.00394398 C9.90354894 0.00308955 11.03963092 0.00223513 12.21013963 0.00135481 C15.37753285 -0.00001331 18.5448857 0.00313393 21.71227413 0.00813287 C25.12264972 0.01243425 28.53302327 0.01099118 31.9434008 0.0102306 C37.85675645 0.00970517 43.7701011 0.01285399 49.68345398 0.01846844 C58.2332656 0.02658081 66.78307188 0.02919839 75.33288693 0.03045643 C89.2029646 0.03264737 103.0730364 0.03930857 116.94311088 0.04875904 C130.4199986 0.05793209 143.89688473 0.06501345 157.37377495 0.06926686 C158.20389699 0.06952958 159.03401904 0.0697923 159.8892963 0.07006299 C164.05359747 0.07136798 168.21789864 0.0726317 172.38219982 0.07387489 C206.95255652 0.08424879 241.5229064 0.10186823 276.09325737 0.1241985 C276.75325737 1.4441985 277.41325737 2.7641985 278.09325737 4.1241985 C277.53134437 3.79927422 276.96943137 3.47434994 276.39049071 3.13957947 C273.82641709 2.00625465 272.12884133 1.875542 269.33752388 1.87810284 C268.37859269 1.87412074 267.41966151 1.87013865 266.4316718 1.86603588 C265.38109428 1.87186156 264.33051676 1.87768724 263.24810356 1.88368946 C262.12987607 1.88198061 261.01164857 1.88027176 259.8595354 1.87851113 C256.09916212 1.87520751 252.33896587 1.88623443 248.57860893 1.89714772 C245.88839385 1.89771164 243.19818973 1.89748378 240.507976 1.89626271 C234.70924863 1.89521362 228.91056625 1.90149269 223.1118502 1.91273838 C214.72787008 1.92898721 206.34391173 1.93420075 197.95991758 1.93671437 C184.3577047 1.94109244 170.75551581 1.95440459 157.15331596 1.97331959 C143.93945 1.99167548 130.72559054 2.00583341 117.5117144 2.01433522 C116.6973155 2.01486066 115.8829166 2.01538611 115.04383895 2.01592748 C110.95827007 2.01853754 106.87270115 2.02106496 102.7871322 2.02355129 C68.88915654 2.04428728 34.99120989 2.07951587 1.09325737 2.1241985 C0.76325737 2.7841985 0.43325737 3.4441985 0.09325737 4.1241985 C-1.96924263 4.7491985 -1.96924263 4.7491985 -3.90674263 5.1241985 C-2.790712 0.18177715 -2.790712 0.18177715 0 0 Z " fill="#909089" transform="translate(66.90674263238907,328.8758015036583)"/>
<path d="M0 0 C78.21 0 156.42 0 237 0 C237 0.33 237 0.66 237 1 C188.16 1.33 139.32 1.66 89 2 C89 2.33 89 2.66 89 3 C83.39 3 77.78 3 72 3 C72 2.67 72 2.34 72 2 C56.16 1.67 40.32 1.34 24 1 C24 1.66 24 2.32 24 3 C6.75 3 6.75 3 -1 2 C-0.67 1.34 -0.34 0.68 0 0 Z " fill="#A2A29D" transform="translate(72,330)"/>
<path d="M0 0 C1.65750526 -0.002062 1.65750526 -0.002062 3.34849548 -0.00416565 C4.56625168 -0.00057037 5.78400787 0.0030249 7.03866577 0.00672913 C8.31667557 0.0065831 9.59468536 0.00643707 10.91142273 0.00628662 C14.4215369 0.00599903 17.93161709 0.0118896 21.44172335 0.01886058 C25.10793671 0.02510045 28.7741508 0.02569842 32.44036865 0.02688599 C39.38538077 0.02999743 46.3303772 0.0382083 53.2753824 0.04823548 C61.18095939 0.05940241 69.08653712 0.06490853 76.99212003 0.06993091 C93.25683067 0.08039106 109.52152552 0.0979869 125.78622437 0.12025452 C126.11622437 0.78025452 126.44622437 1.44025452 126.78622437 2.12025452 C125.77904673 2.12521974 125.77904673 2.12521974 124.75152206 2.13028526 C108.41848244 2.21148279 92.08554422 2.30356453 75.75263596 2.4077816 C67.85418385 2.45791721 59.95574218 2.50436 52.05722046 2.54212952 C45.17338888 2.57505628 38.289638 2.61489127 31.40589547 2.66304457 C27.76053733 2.6883028 24.11523267 2.71008605 20.46981049 2.72359848 C16.40166108 2.7388072 12.33376877 2.76943779 8.26571655 2.80140686 C6.44986809 2.80464714 6.44986809 2.80464714 4.59733582 2.80795288 C3.48958298 2.81911636 2.38183014 2.83027985 1.24050903 2.84178162 C0.27815716 2.84731237 -0.68419472 2.85284313 -1.67570877 2.85854149 C-4.30507714 3.12966908 -5.95562604 3.78288012 -8.21377563 5.12025452 C-7.83877563 3.18275452 -7.83877563 3.18275452 -7.21377563 1.12025452 C-4.65661635 -0.15832513 -2.8638262 -0.00273788 0 0 Z " fill="#9C9C97" transform="translate(71.21377563476563,65.87974548339844)"/>
<path d="M0 0 C0.93769677 0.0023747 1.87539353 0.00474941 2.84150535 0.00719607 C5.99698024 0.01764833 9.15217871 0.0425304 12.30757141 0.06729126 C14.56413904 0.07771285 16.8207109 0.08724892 19.07728577 0.09596252 C25.21541384 0.12218741 31.3534089 0.16085262 37.49145484 0.20168638 C43.90162669 0.24223637 50.31184977 0.27143562 56.72207642 0.30181885 C67.48515733 0.35437148 78.24817302 0.41395812 89.01118469 0.47891235 C100.09775118 0.54580001 111.18432825 0.60846437 122.27095032 0.66543579 C123.29580104 0.67070445 123.29580104 0.67070445 124.34135582 0.67607956 C127.76889589 0.69367413 131.19643637 0.71118553 134.62397707 0.72865558 C163.06456458 0.87372382 191.50505629 1.03352846 219.94551086 1.20254517 C219.94551086 1.53254517 219.94551086 1.86254517 219.94551086 2.20254517 C218.18708249 2.20889307 218.18708249 2.20889307 216.3931303 2.21536922 C188.58244785 2.31598559 160.77178832 2.42168351 132.96114923 2.53366211 C129.54016511 2.54743213 126.11918081 2.56115916 122.69819641 2.57485962 C122.01712317 2.57758792 121.33604994 2.58031623 120.63433812 2.58312721 C109.59801353 2.6272349 98.56167872 2.66785728 87.52533623 2.70719778 C76.2059716 2.74762449 64.88662742 2.79185627 53.56729013 2.83942372 C47.20732332 2.86602902 40.84736032 2.89088223 34.48737144 2.91161919 C28.5063457 2.93117479 22.52535633 2.95531537 16.54436302 2.98303604 C14.34448913 2.99241218 12.14460724 3.00008543 9.94472122 3.00596428 C6.95045271 3.01421587 3.9562727 3.02848995 0.96203613 3.04432678 C0.08363845 3.04530489 -0.79475924 3.046283 -1.69977504 3.04729074 C-5.06460364 3.07031106 -7.84032688 3.13115775 -11.05448914 4.20254517 C-11.7877271 6.21762875 -11.7877271 6.21762875 -12.05448914 8.20254517 C-12.24198914 5.32754517 -12.24198914 5.32754517 -12.05448914 2.20254517 C-8.06707259 -0.45573253 -4.62576632 -0.05094349 0 0 Z " fill="#9F9D96" transform="translate(75.05448913574219,407.7974548339844)"/>
<path d="M0 0 C0.66 0 1.32 0 2 0 C2 39.93 2 79.86 2 121 C1.01 120.34 0.02 119.68 -1 119 C-1.3719368 117.00590134 -1.3719368 117.00590134 -1.36749268 114.50994873 C-1.37306183 113.56507095 -1.37863098 112.62019318 -1.3843689 111.64668274 C-1.37515411 110.60666611 -1.36593933 109.56664948 -1.35644531 108.49511719 C-1.35848969 107.40230942 -1.36053406 106.30950165 -1.36264038 105.18357849 C-1.36565948 101.55450961 -1.34713266 97.92589025 -1.328125 94.296875 C-1.3250684 91.78062045 -1.32319153 89.26436421 -1.32244873 86.74810791 C-1.31783807 81.4653026 -1.3037757 76.18265201 -1.28125 70.89990234 C-1.25243958 64.12967663 -1.24203227 57.35955572 -1.2375679 50.58927536 C-1.23340805 45.38882242 -1.22358488 40.18839373 -1.21169281 34.98795319 C-1.20599585 32.49210046 -1.20123525 29.99624542 -1.19742584 27.5003891 C-1.19054332 24.00770497 -1.1768997 20.51511487 -1.16113281 17.02246094 C-1.16001495 15.99054123 -1.15889709 14.95862152 -1.15774536 13.89543152 C-1.12942153 9.15263777 -0.98853595 4.66312618 0 0 Z " fill="#F1F2EF" transform="translate(3,23)"/>
<path d="M0 0 C5.29741807 1.40225773 8.06949035 4.58135324 11 9 C14.10575199 16.17068149 14.32765749 22.93061954 13.92578125 30.625 C13.88188766 31.69371338 13.83799408 32.76242676 13.79277039 33.86352539 C13.69719945 36.10257501 13.59339443 38.34128714 13.48168945 40.57958984 C13.31164368 44.01731177 13.1704861 47.45536035 13.03320312 50.89453125 C12.93658139 53.07559616 12.83833279 55.25658974 12.73828125 57.4375 C12.6954451 58.46762207 12.65260895 59.49774414 12.60847473 60.55908203 C12.55890121 61.5076709 12.5093277 62.45625977 12.45825195 63.43359375 C12.41811478 64.26947021 12.3779776 65.10534668 12.33662415 65.96655273 C12 68 12 68 10 70 C9.505 62.575 9.505 62.575 9 55 C8.67 55 8.34 55 8 55 C7.97287934 53.56260487 7.95354933 52.12506137 7.9375 50.6875 C7.92589844 49.88699219 7.91429687 49.08648437 7.90234375 48.26171875 C8 46 8 46 9 43 C10.40408649 27.49694847 8.57796039 13.2888075 0 0 Z " fill="#C7C5BD" transform="translate(286,7)"/>
<path d="M0 0 C0.33 0 0.66 0 1 0 C1.17557569 16.64574723 1.34155211 33.29158089 1.5 49.9375 C1.51187725 51.18471832 1.5237545 52.43193665 1.53599167 53.71694946 C1.89451246 91.64510574 2.09324045 129.57012889 2.0625 167.5 C2.06164398 168.56403423 2.06078796 169.62806847 2.05990601 170.72434616 C2.04884938 183.4829161 2.02931332 196.24145917 2 209 C1.67 209 1.34 209 1 209 C1 182.6 1 156.2 1 129 C0.34 129 -0.32 129 -1 129 C-0.67 86.43 -0.34 43.86 0 0 Z " fill="#DADBD7" transform="translate(3,32)"/>
<path d="M0 0 C1.98 0.99 3.96 1.98 6 3 C6 2.34 6 1.68 6 1 C11 3 16 5 21 7 C21 7.66 21 8.32 21 9 C23.97667636 10.48833818 27.02919152 10.17894997 30.29541016 10.20532227 C31.04672714 10.21522186 31.79804413 10.22512146 32.5721283 10.23532104 C35.06107406 10.26696523 37.55003893 10.29170495 40.0390625 10.31640625 C41.76256818 10.33697326 43.48606879 10.35796967 45.20956421 10.37937927 C49.7502024 10.43462607 54.2908863 10.48402383 58.831604 10.53222656 C63.46329832 10.58242256 68.09492609 10.63811854 72.7265625 10.69335938 C81.81765151 10.80097284 90.90879825 10.90241072 100 11 C100 11.33 100 11.66 100 12 C99.28003342 12.00586624 98.56006683 12.01173248 97.81828308 12.01777649 C91.03486974 12.07566863 84.25173902 12.14772514 77.46865368 12.23571491 C73.9813232 12.28045208 70.49411043 12.31970032 67.0065918 12.34643555 C62.99758213 12.37740851 58.98920633 12.43219816 54.98046875 12.48828125 C53.72727341 12.49467117 52.47407806 12.5010611 51.1829071 12.50764465 C49.44144157 12.53733589 49.44144157 12.53733589 47.66479492 12.56762695 C46.64109299 12.57873001 45.61739105 12.58983307 44.56266785 12.60127258 C41.60463026 13.06151588 40.9155883 13.80529891 39 16 C36.4375 16.375 36.4375 16.375 34 16 C33.34 15.01 32.68 14.02 32 13 C29.4467147 12.41498471 29.4467147 12.41498471 26.5625 12.3125 C25.59441406 12.24675781 24.62632812 12.18101562 23.62890625 12.11328125 C21.75396413 12.0324888 19.87668201 12 18 12 C17.01 11.67 16.02 11.34 15 11 C13.7625 10.7834375 13.7625 10.7834375 12.5 10.5625 C10 10 10 10 7 8 C7 7.34 7 6.68 7 6 C5.35 5.67 3.7 5.34 2 5 C2 4.34 2 3.68 2 3 C1.34 3 0.68 3 0 3 C0 2.01 0 1.02 0 0 Z " fill="#C2BEB2" transform="translate(308,122)"/>
<path d="M0 0 C0.87957367 -0.00315216 1.75914734 -0.00630432 2.66537476 -0.009552 C3.62867706 -0.00752777 4.59197937 -0.00550354 5.58447266 -0.00341797 C6.58121002 -0.00437469 7.57794739 -0.00533142 8.60488892 -0.00631714 C10.73187319 -0.00700022 12.85885953 -0.00513707 14.98583984 -0.00097656 C18.17241417 0.00426922 21.35884086 -0.00086361 24.54541016 -0.00732422 C37.02074218 -0.0109816 49.42431333 0.31841243 61.87353516 1.12939453 C61.87353516 1.45939453 61.87353516 1.78939453 61.87353516 2.12939453 C59.941875 2.22027344 59.941875 2.22027344 57.97119141 2.31298828 C56.29279357 2.397377 54.61440879 2.48202583 52.93603516 2.56689453 C51.66083008 2.62586914 51.66083008 2.62586914 50.35986328 2.68603516 C49.55097656 2.72792969 48.74208984 2.76982422 47.90869141 2.81298828 C47.15982666 2.849646 46.41096191 2.88630371 45.6394043 2.92407227 C43.84892189 2.94710516 43.84892189 2.94710516 42.87353516 4.12939453 C41.47778118 4.23778751 40.07666178 4.27839953 38.67675781 4.29052734 C37.78558258 4.30013489 36.89440735 4.30974243 35.97622681 4.31964111 C34.52160538 4.32601593 34.52160538 4.32601593 33.03759766 4.33251953 C32.0473056 4.3382196 31.05701355 4.34391968 30.03671265 4.34979248 C27.93675816 4.35925853 25.83678871 4.3657828 23.73681641 4.36962891 C20.51910543 4.3793325 17.30203348 4.41034015 14.08447266 4.44189453 C12.04801813 4.44842439 10.01155902 4.45367493 7.97509766 4.45751953 C7.0093985 4.46986633 6.04369934 4.48221313 5.04873657 4.49493408 C4.15125702 4.49193298 3.25377747 4.48893188 2.32910156 4.48583984 C1.14448837 4.49130829 1.14448837 4.49130829 -0.0640564 4.49688721 C-2.6163974 4.04209532 -3.50177383 3.09483757 -5.12646484 1.12939453 C-3.5827957 -0.41427461 -2.14905333 0.00220496 0 0 Z " fill="#E9E5D3" transform="translate(333.12646484375,128.87060546875)"/>
<path d="M0 0 C18.48 0 36.96 0 56 0 C53 4 53 4 50.85864258 4.56176758 C50.04548584 4.58907959 49.2323291 4.6163916 48.39453125 4.64453125 C47.04198242 4.69963867 47.04198242 4.69963867 45.66210938 4.75585938 C44.72173828 4.77455078 43.78136719 4.79324219 42.8125 4.8125 C41.43094727 4.86954102 41.43094727 4.86954102 40.02148438 4.92773438 C34.53865955 5.11062491 29.42667347 4.7436132 24 4 C21.81287412 3.95954449 19.62457858 3.95706349 17.4375 4 C12.80957347 4.04290083 8.54973263 3.79125785 4 3 C3.01 3 2.02 3 1 3 C0.67 2.01 0.34 1.02 0 0 Z " fill="#A7A49A" transform="translate(352,134)"/>
<path d="M0 0 C-1.40185547 0.16435547 -1.40185547 0.16435547 -2.83203125 0.33203125 C-10.54119649 1.25613635 -18.2102473 2.32106885 -25.875 3.5625 C-28.91599123 4.04603159 -31.95781416 4.52405092 -35 5 C-36.62615234 5.25716797 -36.62615234 5.25716797 -38.28515625 5.51953125 C-39.16042969 5.63683594 -40.03570312 5.75414062 -40.9375 5.875 C-41.64777344 5.97554687 -42.35804688 6.07609375 -43.08984375 6.1796875 C-45.72099327 5.9321765 -47.03678693 4.69530256 -49 3 C-44.37183267 0.64417935 -40.24465865 0.76478531 -35.1875 0.875 C-34.00510742 0.88853516 -34.00510742 0.88853516 -32.79882812 0.90234375 C-30.86575334 0.92577496 -28.9328362 0.96164162 -27 1 C-27 0.34 -27 -0.32 -27 -1 C-5.17409949 -3.44939966 -5.17409949 -3.44939966 0 0 Z " fill="#D5D3CC" transform="translate(411,142)"/>
<path d="M0 0 C1.98 0.99 3.96 1.98 6 3 C6 2.34 6 1.68 6 1 C11 3 16 5 21 7 C21 7.66 21 8.32 21 9 C21.66 9.66 22.32 10.32 23 11 C21.25 12.125 21.25 12.125 19 13 C17.0625 12.1875 17.0625 12.1875 15 11 C14.154375 10.835 13.30875 10.67 12.4375 10.5 C10 10 10 10 7 8 C7 7.34 7 6.68 7 6 C5.35 5.67 3.7 5.34 2 5 C2 4.34 2 3.68 2 3 C1.34 3 0.68 3 0 3 C0 2.01 0 1.02 0 0 Z " fill="#D0CBBC" transform="translate(308,122)"/>
<path d="M0 0 C0.33 0 0.66 0 1 0 C2.27325108 11.45146746 3.32044941 22.78409055 2.75 34.3125 C2.71140869 35.1590918 2.67281738 36.00568359 2.63305664 36.87792969 C2.26405241 42.73594759 2.26405241 42.73594759 0 45 C-0.495 37.575 -0.495 37.575 -1 30 C-1.33 30 -1.66 30 -2 30 C-2.02712066 28.56260487 -2.04645067 27.12506137 -2.0625 25.6875 C-2.07410156 24.88699219 -2.08570313 24.08648437 -2.09765625 23.26171875 C-2 21 -2 21 -1 18 C-0.85507877 16.59335074 -0.75371069 15.1818867 -0.68359375 13.76953125 C-0.64169922 12.96708984 -0.59980469 12.16464844 -0.55664062 11.33789062 C-0.51732422 10.50451172 -0.47800781 9.67113281 -0.4375 8.8125 C-0.39431641 7.96751953 -0.35113281 7.12253906 -0.30664062 6.25195312 C-0.20068482 4.16815567 -0.0998498 2.08409897 0 0 Z " fill="#C7C8C0" transform="translate(296,32)"/>
<path d="M0 0 C2 1 2 1 2.67578125 3.00390625 C2.99095703 4.27041016 2.99095703 4.27041016 3.3125 5.5625 C4.57210274 10.08797996 6.34126416 13.56205579 9.01171875 17.40625 C10 19 10 19 10 21 C10.99 21.33 11.98 21.66 13 22 C12.67 22.99 12.34 23.98 12 25 C9.35528007 24.63442316 8.2292348 24.25109337 6.40234375 22.25 C2.36364643 16.04656092 -1.3543872 10.04001405 -0.6875 2.4375 C-0.460625 1.633125 -0.23375 0.82875 0 0 Z " fill="#E4DFD0" transform="translate(302,100)"/>
<path d="M0 0 C0.495 1.98 0.495 1.98 1 4 C0.33249222 3.51202438 -0.33501556 3.02404877 -1.02275085 2.52128601 C-4.64794224 0.66892073 -7.66575356 0.59842613 -11.63598633 0.65942383 C-12.76361893 0.65876671 -12.76361893 0.65876671 -13.91403198 0.65809631 C-16.38696702 0.66017835 -18.85921535 0.68348105 -21.33203125 0.70703125 C-23.05124033 0.7126293 -24.77045421 0.71689841 -26.4896698 0.71989441 C-31.0057811 0.73132674 -35.52160112 0.76077995 -40.03759766 0.79400635 C-44.64937398 0.82474206 -49.26119756 0.83840722 -53.87304688 0.85351562 C-62.91549228 0.88565127 -71.95772188 0.93682806 -81 1 C-81 0.67 -81 0.34 -81 0 C-71.47258594 -0.15415438 -61.94510285 -0.30233228 -52.41747952 -0.4429636 C-47.99303042 -0.50845619 -43.56863197 -0.57597669 -39.14428711 -0.64819336 C-34.87145749 -0.71786126 -30.59857709 -0.78212163 -26.32560921 -0.84269524 C-24.69857921 -0.86669851 -23.07157633 -0.89262248 -21.44460869 -0.92053413 C-19.1589977 -0.95941122 -16.87338407 -0.99134565 -14.58764648 -1.02172852 C-12.63905983 -1.05170677 -12.63905983 -1.05170677 -10.65110779 -1.08229065 C-6.9855208 -0.99967366 -3.61040436 -0.59498835 0 0 Z " fill="#9F9C95" transform="translate(377,409)"/>
<path d="M0 0 C0.33 0.66 0.66 1.32 1 2 C-3.11872152 7.30285395 -7.26270996 12.2358024 -14 14 C-15.32 13.67 -16.64 13.34 -18 13 C-15.36 11.68 -12.72 10.36 -10 9 C-10.99 8.67 -11.98 8.34 -13 8 C-10.42215154 5.35247996 -8.08351902 3.05567935 -5 1 C-4.01 1 -3.02 1 -2 1 C-1.34 0.67 -0.68 0.34 0 0 Z " fill="#C4C3BD" transform="translate(431,546)"/>
<path d="M0 0 C0.95708359 0.0199855 1.91416718 0.03997101 2.9002533 0.06056213 C3.98129837 0.08065842 5.06234344 0.1007547 6.17614746 0.12145996 C7.35217026 0.14849503 8.52819305 0.17553009 9.73985291 0.2033844 C10.93702438 0.22699539 12.13419586 0.25060638 13.36764526 0.27493286 C17.20927629 0.3517971 21.05071715 0.43572311 24.89219666 0.51979065 C27.48919241 0.57298856 30.08619758 0.62572908 32.68321228 0.67799377 C39.06549262 0.80744288 45.44763057 0.9426974 51.82969666 1.08229065 C51.82969666 1.41229065 51.82969666 1.74229065 51.82969666 2.08229065 C24.60469666 2.57729065 24.60469666 2.57729065 -3.17030334 3.08229065 C-3.50030334 3.74229065 -3.83030334 4.40229065 -4.17030334 5.08229065 C-3.04879256 0.11560002 -3.04879256 0.11560002 0 0 Z " fill="#A09F99" transform="translate(67.17030334472656,447.91770935058594)"/>
<path d="M0 0 C7.26 0 14.52 0 22 0 C22 0.66 22 1.32 22 2 C19.22276075 2.78688445 16.77389923 3.11949924 13.890625 3.09765625 C13.13652344 3.09443359 12.38242187 3.09121094 11.60546875 3.08789062 C10.82816406 3.07951172 10.05085938 3.07113281 9.25 3.0625 C8.45722656 3.05798828 7.66445313 3.05347656 6.84765625 3.04882812 C4.89840492 3.03708565 2.94919262 3.01915146 1 3 C0.67 2.01 0.34 1.02 0 0 Z " fill="#9E9C91" transform="translate(384,134)"/>
<path d="M0 0 C0.33 0 0.66 0 1 0 C1.02902429 3.27081471 1.04680684 6.5415963 1.0625 9.8125 C1.07087891 10.74126953 1.07925781 11.67003906 1.08789062 12.62695312 C1.09111328 13.51962891 1.09433594 14.41230469 1.09765625 15.33203125 C1.10289307 16.15421143 1.10812988 16.9763916 1.11352539 17.82348633 C1 20 1 20 0 23 C-0.22179785 24.89212737 -0.40614015 26.78884472 -0.5625 28.6875 C-0.64628906 29.68136719 -0.73007812 30.67523438 -0.81640625 31.69921875 C-0.87699219 32.45847656 -0.93757813 33.21773437 -1 34 C-1.66 34 -2.32 34 -3 34 C-2.35373837 22.62239397 -1.25563839 11.32512681 0 0 Z " fill="#E1E2DC" transform="translate(295,30)"/>
<path d="M0 0 C0.33 0 0.66 0 1 0 C1.05819473 4.06243957 1.09366215 8.12477146 1.125 12.1875 C1.14175781 13.33798828 1.15851563 14.48847656 1.17578125 15.67382812 C1.18222656 16.78564453 1.18867188 17.89746094 1.1953125 19.04296875 C1.20578613 20.06414795 1.21625977 21.08532715 1.22705078 22.13745117 C0.98999632 25.12612167 0.25617102 27.29423369 -1 30 C-1.33 30 -1.66 30 -2 30 C-2.02712066 28.56260487 -2.04645067 27.12506137 -2.0625 25.6875 C-2.07410156 24.88699219 -2.08570313 24.08648437 -2.09765625 23.26171875 C-2 21 -2 21 -1 18 C-0.85507877 16.59335074 -0.75371069 15.1818867 -0.68359375 13.76953125 C-0.64169922 12.96708984 -0.59980469 12.16464844 -0.55664062 11.33789062 C-0.51732422 10.50451172 -0.47800781 9.67113281 -0.4375 8.8125 C-0.39431641 7.96751953 -0.35113281 7.12253906 -0.30664062 6.25195312 C-0.20068482 4.16815567 -0.0998498 2.08409897 0 0 Z " fill="#CECEC6" transform="translate(296,32)"/>
<path d="M0 0 C0 0.66 0 1.32 0 2 C-18.315 1.505 -18.315 1.505 -37 1 C-37 0.67 -37 0.34 -37 0 C-32.05227976 -0.16745546 -27.1044028 -0.32803118 -22.15625 -0.48217773 C-20.4722693 -0.53561424 -18.78834761 -0.59094488 -17.10449219 -0.64819336 C-14.68697842 -0.73005852 -12.26933568 -0.80515472 -9.8515625 -0.87890625 C-9.0963028 -0.90594131 -8.34104309 -0.93297638 -7.56289673 -0.96083069 C-2.22774341 -1.11387171 -2.22774341 -1.11387171 0 0 Z " fill="#A29F9A" transform="translate(262,449)"/>
<path d="M0 0 C5.57916295 2.23166518 6.55301827 3.46968116 10 8 C8.68 8.99 7.36 9.98 6 11 C4.02 7.37 2.04 3.74 0 0 Z " fill="#CDCBC3" transform="translate(286,7)"/>
<path d="M0 0 C3.22265625 5.17578125 3.22265625 5.17578125 4 7 C3.67 7.99 3.34 8.98 3 10 C2.67 9.01 2.34 8.02 2 7 C0.15028304 5.94978897 0.15028304 5.94978897 -2 5 C-3.35113205 4.02418241 -4.68946944 3.02970259 -6 2 C-3 0 -3 0 0 0 Z " fill="#CBC8BF" transform="translate(426,142)"/>
<path d="M0 0 C3.317124 4.422832 3.30466674 5.71910976 3 11 C3.66 11.33 4.32 11.66 5 12 C4.34 12 3.68 12 3 12 C2.67 12.66 2.34 13.32 2 14 C1.34 14 0.68 14 0 14 C0 9.38 0 4.76 0 0 Z " fill="#B0B0AB" transform="translate(62,70)"/>
<path d="M0 0 C0.33 0 0.66 0 1 0 C1 4.29 1 8.58 1 13 C1.66 13.33 2.32 13.66 3 14 C1.6875 16.5 1.6875 16.5 0 19 C-0.99 19 -1.98 19 -3 19 C-2.68289063 18.49984375 -2.36578125 17.9996875 -2.0390625 17.484375 C-0.6351235 14.12758852 -0.53774346 10.83713706 -0.375 7.25 C-0.33632813 6.55261719 -0.29765625 5.85523438 -0.2578125 5.13671875 C-0.16401376 3.42489182 -0.08093826 1.71248318 0 0 Z " fill="#DDD9CF" transform="translate(378,372)"/>
<path d="M0 0 C3.3 0 6.6 0 10 0 C8.515 1.98 8.515 1.98 7 4 C4.3125 4.25 4.3125 4.25 2 4 C1.34 2.68 0.68 1.36 0 0 Z " fill="#ACA79E" transform="translate(340,134)"/>
<path d="M0 0 C1.46373047 0.02707031 1.46373047 0.02707031 2.95703125 0.0546875 C3.69308594 0.07789063 4.42914063 0.10109375 5.1875 0.125 C5.1875 0.455 5.1875 0.785 5.1875 1.125 C3.3621875 1.310625 3.3621875 1.310625 1.5 1.5 C-1.21825945 1.82177276 -3.06691416 2.23241931 -5.625 3.3125 C-6.346875 3.580625 -7.06875 3.84875 -7.8125 4.125 C-8.8025 3.465 -9.7925 2.805 -10.8125 2.125 C-7.04027911 0.37336544 -4.145861 -0.09990027 0 0 Z " fill="#CBCBC2" transform="translate(372.8125,142.875)"/>
<path d="M0 0 C1.98 0.495 1.98 0.495 4 1 C3.67 2.98 3.34 4.96 3 7 C2.01 7.33 1.02 7.66 0 8 C-0.98120464 4.94736336 -0.98120464 3.05263664 0 0 Z " fill="#F4F5EF" transform="translate(202,80)"/>
<path d="M0 0 C0.99 0.33 1.98 0.66 3 1 C3 2.98 3 4.96 3 7 C2.01 7.495 2.01 7.495 1 8 C-1 5 -1 5 -0.625 2.3125 C-0.41875 1.549375 -0.2125 0.78625 0 0 Z " fill="#C0BFB5" transform="translate(294,15)"/>
<path d="M0 0 C0.33 0 0.66 0 1 0 C1.92470553 4.71599818 2.22923777 7.67265609 0 12 C-0.33 12 -0.66 12 -1 12 C-1.02712066 10.56260487 -1.04645067 9.12506137 -1.0625 7.6875 C-1.07410156 6.88699219 -1.08570313 6.08648437 -1.09765625 5.26171875 C-1 3 -1 3 0 0 Z " fill="#D6D7D1" transform="translate(295,50)"/>
<path d="M0 0 C-1.75 2.0625 -1.75 2.0625 -4 4 C-6.25 3.75 -6.25 3.75 -8 3 C-7.34 2.67 -6.68 2.34 -6 2 C-6.33 1.34 -6.66 0.68 -7 0 C-4.3333581 -1.33332095 -2.83319697 -0.67102033 0 0 Z " fill="#D3D1CA" transform="translate(422,554)"/>
<path d="M0 0 C0 1.32 0 2.64 0 4 C-2.97 3.505 -2.97 3.505 -6 3 C-3.375 0 -3.375 0 0 0 Z " fill="#C2BFB5" transform="translate(426,142)"/>
</svg>
